{"glyphs":{"0":{"ha":708,"x_min":118,"x_max":590,"o":"m 590 729 l 590 174 q 531 30 590 81 q 355 -21 472 -21 q 178 30 238 -21 q 118 174 118 81 l 118 729 q 177 873 118 822 q 353 924 236 924 q 531 873 471 924 q 590 729 590 822 m 493 174 l 493 729 q 354 840 493 840 q 215 729 215 840 l 215 174 q 354 63 215 63 q 493 174 493 63 z "},"1":{"ha":708,"x_min":100,"x_max":578,"o":"m 425 903 l 425 83 l 578 83 l 578 0 l 175 0 l 175 83 l 328 83 l 328 807 l 142 700 l 100 771 l 328 903 l 425 903 z "},"2":{"ha":708,"x_min":125,"x_max":594,"o":"m 125 0 l 125 83 l 389 457 q 410 486 394 464 q 432 518 425 508 q 451 547 439 528 q 470 578 464 567 q 483 606 476 590 q 497 660 497 633 l 497 735 q 465 813 497 785 q 367 840 432 840 q 269 813 301 840 q 236 735 236 785 l 236 611 l 139 611 l 139 729 q 363 924 139 924 q 537 873 479 924 q 594 729 594 822 l 594 660 q 565 556 594 613 q 464 399 535 500 l 243 83 l 593 83 l 593 0 l 125 0 z "},"3":{"ha":708,"x_min":121,"x_max":590,"o":"m 576 729 l 576 604 q 478 453 576 486 q 590 299 590 422 l 590 174 q 356 -21 590 -21 q 121 174 121 -21 l 121 292 l 218 292 l 218 168 q 253 90 218 118 q 356 63 288 63 q 458 90 424 63 q 493 168 493 118 l 493 299 q 460 380 493 343 q 369 417 426 417 l 229 417 l 229 486 l 356 486 q 447 522 414 486 q 479 604 479 558 l 479 735 q 447 813 479 785 q 349 840 414 840 q 251 813 283 840 q 218 735 218 785 l 218 611 l 121 611 l 121 729 q 344 924 121 924 q 519 873 461 924 q 576 729 576 822 z "},"4":{"ha":708,"x_min":43,"x_max":578,"o":"m 508 903 l 508 292 l 578 292 l 578 208 l 508 208 l 508 0 l 411 0 l 411 208 l 43 208 l 43 292 l 411 903 l 508 903 m 411 292 l 411 742 l 140 292 l 411 292 z "},"5":{"ha":708,"x_min":121,"x_max":590,"o":"m 232 819 l 232 542 l 369 542 q 533 488 476 542 q 590 340 590 433 l 590 174 q 356 -21 590 -21 q 121 174 121 -21 l 121 292 l 218 292 l 218 168 q 253 90 218 118 q 356 63 288 63 q 458 90 424 63 q 493 168 493 118 l 493 340 q 460 422 493 385 q 369 458 426 458 l 135 458 l 135 903 l 576 903 l 576 819 l 232 819 z "},"6":{"ha":708,"x_min":118,"x_max":590,"o":"m 118 175 l 118 729 q 353 924 118 924 q 588 729 588 924 l 588 639 l 490 639 l 490 735 q 353 840 490 840 q 215 735 215 840 l 215 485 q 367 535 263 535 q 531 484 471 535 q 590 340 590 433 l 590 174 q 531 30 590 81 q 355 -21 472 -21 q 178 30 238 -21 q 118 174 118 81 l 119 175 l 118 175 m 215 174 q 354 63 215 63 q 493 174 493 63 l 493 340 q 358 451 493 451 q 215 350 222 451 l 215 174 z "},"7":{"ha":708,"x_min":113,"x_max":567,"o":"m 113 819 l 113 903 l 567 903 l 567 819 l 313 0 l 213 0 l 467 819 l 113 819 z "},"8":{"ha":708,"x_min":119,"x_max":589,"o":"m 119 174 l 119 306 q 219 451 119 419 q 119 597 119 481 l 119 729 q 343 924 119 924 q 517 873 460 924 q 575 729 575 822 l 575 597 q 482 453 575 483 q 589 306 589 424 l 589 174 q 354 -21 589 -21 q 119 174 119 -21 m 368 417 l 340 417 q 249 383 282 417 q 217 306 217 350 l 217 168 q 251 90 217 118 q 354 63 286 63 q 457 90 422 63 q 492 168 492 118 l 492 306 q 459 383 492 350 q 368 417 426 417 m 217 735 l 217 597 q 249 519 217 551 q 340 486 282 486 l 354 486 q 445 519 413 486 q 478 597 478 551 l 478 735 q 445 813 478 785 q 347 840 413 840 q 249 813 282 840 q 217 735 217 785 z "},"9":{"ha":708,"x_min":118,"x_max":590,"o":"m 590 728 l 590 174 q 356 -21 590 -21 q 121 174 121 -21 l 121 264 l 218 264 l 218 168 q 356 63 218 63 q 493 168 493 63 l 493 417 q 342 368 447 368 q 178 419 238 368 q 118 563 118 469 l 118 729 q 177 873 118 822 q 353 924 236 924 q 531 873 471 924 q 590 729 590 822 l 589 728 l 590 728 m 493 563 l 493 729 q 354 840 493 840 q 215 729 215 840 l 215 563 q 354 451 215 451 q 493 563 493 451 z "}," ":{"ha":319,"x_min":0,"x_max":0,"o":""},"!":{"ha":403,"x_min":146,"x_max":257,"o":"m 250 0 l 153 0 l 153 153 l 250 153 l 250 0 m 146 903 l 257 903 l 257 563 l 236 292 l 167 292 l 146 563 l 146 903 z "},"\"":{"ha":569,"x_min":118,"x_max":451,"o":"m 118 924 l 243 924 l 243 840 l 201 611 l 160 611 l 118 840 l 118 924 m 326 924 l 451 924 l 451 840 l 410 611 l 368 611 l 326 840 l 326 924 z "},"#":{"ha":875,"x_min":56,"x_max":819,"o":"m 56 271 l 56 354 l 207 354 l 236 549 l 99 549 l 99 632 l 250 632 l 292 903 l 375 903 l 333 632 l 597 632 l 639 903 l 722 903 l 681 632 l 819 632 l 819 549 l 667 549 l 638 354 l 776 354 l 776 271 l 625 271 l 583 0 l 500 0 l 542 271 l 278 271 l 236 0 l 153 0 l 194 271 l 56 271 m 319 549 l 290 354 l 554 354 l 583 549 l 319 549 z "},"$":{"ha":708,"x_min":119,"x_max":589,"o":"m 319 -139 l 319 -19 q 119 174 119 -6 l 119 292 l 217 292 l 217 168 q 319 64 217 78 l 319 419 l 194 542 q 135 626 151 585 q 119 729 119 667 q 319 922 119 908 l 319 1042 l 389 1042 l 389 922 q 575 729 575 906 l 575 611 l 478 611 l 478 735 q 389 836 478 819 l 389 486 l 518 363 q 574 277 558 318 q 589 174 589 236 q 389 -19 589 -6 l 389 -139 l 319 -139 m 217 735 q 226 660 217 688 q 269 601 236 632 l 319 553 l 319 839 q 217 735 217 826 m 492 168 q 481 242 492 214 q 439 303 471 271 l 389 351 l 389 64 q 492 168 492 78 z "},"%":{"ha":903,"x_min":118,"x_max":785,"o":"m 361 -83 l 299 -83 l 542 986 l 604 986 l 361 -83 m 368 822 l 368 610 q 337 533 368 561 q 244 504 306 504 q 150 532 182 504 q 118 610 118 560 l 118 822 q 243 928 118 928 q 336 900 304 928 q 368 822 368 872 m 301 610 l 301 822 q 243 868 301 868 q 185 822 185 868 l 185 610 q 243 564 185 564 q 301 610 301 564 m 785 304 l 785 92 q 753 15 785 43 q 660 -14 722 -14 q 567 14 599 -14 q 535 92 535 42 l 535 304 q 660 410 535 410 q 753 382 721 410 q 785 304 785 354 m 718 92 l 718 304 q 660 350 718 350 q 601 304 601 350 l 601 92 q 660 46 601 46 q 718 92 718 46 z "},"&":{"ha":708,"x_min":97,"x_max":679,"o":"m 97 174 l 97 299 q 197 485 97 447 q 125 660 125 597 l 125 729 q 183 873 125 822 q 357 924 240 924 q 581 729 581 924 l 581 611 l 483 611 l 483 735 q 451 813 483 785 q 353 840 418 840 q 255 813 288 840 q 222 735 222 785 l 222 660 q 299 500 222 610 l 679 500 l 679 417 l 567 417 l 567 174 q 332 -21 567 -21 q 97 174 97 -21 m 469 168 l 469 417 l 290 417 q 194 299 194 417 l 194 168 q 229 90 194 118 q 332 63 264 63 q 435 90 400 63 q 469 168 469 118 z "},"'":{"ha":361,"x_min":118,"x_max":243,"o":"m 118 924 l 243 924 l 243 840 l 201 611 l 160 611 l 118 840 l 118 924 z "},"(":{"ha":447,"x_min":118,"x_max":357,"o":"m 118 104 l 118 799 q 178 942 118 892 q 357 993 238 993 l 357 910 q 215 799 215 910 l 215 104 q 356 -7 215 -7 l 356 -90 q 178 -40 238 -90 q 118 104 118 11 z "},")":{"ha":447,"x_min":35,"x_max":274,"o":"m 274 799 l 274 104 q 214 -40 274 11 q 36 -90 154 -90 l 36 -7 q 176 104 176 -7 l 176 799 q 35 910 176 910 l 35 993 q 214 942 154 993 q 274 799 274 892 z "},"*":{"ha":531,"x_min":76,"x_max":454,"o":"m 231 806 l 231 944 l 300 944 l 300 806 l 438 842 l 454 778 l 317 742 l 404 631 l 353 589 l 265 700 l 317 742 l 300 806 l 231 806 m 214 742 l 76 778 l 93 842 l 231 806 l 214 742 m 265 700 l 178 589 l 126 631 l 214 742 l 265 700 z "},"+":{"ha":708,"x_min":132,"x_max":576,"o":"m 313 674 l 396 674 l 396 493 l 576 493 l 576 410 l 396 410 l 396 229 l 313 229 l 313 410 l 132 410 l 132 493 l 313 493 l 313 674 z "},",":{"ha":361,"x_min":118,"x_max":243,"o":"m 118 153 l 243 153 l 243 21 l 175 -154 l 131 -146 l 151 0 l 118 13 l 118 153 z "},"-":{"ha":681,"x_min":132,"x_max":549,"o":"m 132 417 l 132 500 l 549 500 l 549 417 l 132 417 z "},".":{"ha":361,"x_min":118,"x_max":243,"o":"m 243 0 l 118 0 l 118 153 l 243 153 l 243 0 z "},"/":{"ha":528,"x_min":83,"x_max":444,"o":"m 167 -139 l 83 -139 l 361 1042 l 444 1042 l 167 -139 z "},":":{"ha":361,"x_min":118,"x_max":243,"o":"m 243 0 l 118 0 l 118 153 l 243 153 l 243 0 m 243 556 l 118 556 l 118 708 l 243 708 l 243 556 z "},";":{"ha":361,"x_min":118,"x_max":243,"o":"m 118 153 l 243 153 l 243 21 l 175 -154 l 131 -146 l 151 0 l 118 13 l 118 153 m 243 556 l 118 556 l 118 708 l 243 708 l 243 556 z "},"<":{"ha":708,"x_min":132,"x_max":576,"o":"m 132 421 l 132 482 l 539 718 l 576 644 l 239 451 l 576 258 l 539 185 l 132 421 z "},"=":{"ha":708,"x_min":132,"x_max":576,"o":"m 576 382 l 576 299 l 132 299 l 132 382 l 576 382 m 576 604 l 576 521 l 132 521 l 132 604 l 576 604 z "},">":{"ha":708,"x_min":132,"x_max":576,"o":"m 576 482 l 576 421 l 169 185 l 132 258 l 469 451 l 132 644 l 169 718 l 576 482 z "},"?":{"ha":608,"x_min":69,"x_max":525,"o":"m 342 0 l 244 0 l 244 153 l 342 153 l 342 0 m 263 292 l 263 375 l 319 457 q 340 486 325 464 q 363 518 356 508 q 382 547 369 528 q 401 578 394 567 q 414 606 407 590 q 428 660 428 633 l 428 735 q 395 813 428 785 q 297 840 363 840 q 199 813 232 840 q 167 735 167 785 l 167 611 l 69 611 l 69 729 q 293 924 69 924 q 467 873 410 924 q 525 729 525 822 l 525 660 q 495 555 525 613 q 394 399 465 497 l 318 292 l 263 292 z "},"@":{"ha":1036,"x_min":167,"x_max":869,"o":"m 690 679 l 690 475 l 797 475 l 797 704 q 518 931 797 931 q 239 704 239 931 l 239 199 q 518 -28 239 -28 q 797 199 797 -28 l 797 233 l 869 233 l 869 199 q 782 -15 869 61 q 519 -90 694 -90 q 256 -15 344 -90 q 167 199 167 61 l 167 704 q 254 917 167 842 q 516 993 342 993 q 780 917 690 993 q 869 704 869 842 l 869 404 l 690 404 l 690 225 q 511 71 690 71 q 332 225 332 71 l 332 326 q 369 437 332 399 q 494 475 407 475 l 601 475 l 601 683 q 579 740 601 719 q 515 761 557 761 q 432 683 432 761 l 432 563 l 342 563 l 342 679 q 516 833 342 833 q 690 679 690 833 m 601 221 l 601 404 l 488 404 q 424 331 424 404 l 424 219 q 513 143 424 143 q 601 221 601 143 z "},"A":{"ha":665,"x_min":56,"x_max":610,"o":"m 260 903 l 406 903 l 610 0 l 513 0 l 465 208 l 200 208 l 153 0 l 56 0 l 260 903 m 332 794 l 218 292 l 446 292 l 332 794 z "},"B":{"ha":701,"x_min":139,"x_max":583,"o":"m 139 903 l 349 903 q 513 851 457 903 q 569 708 569 800 l 569 625 q 471 474 569 507 q 583 319 583 443 l 583 194 q 528 51 583 101 q 363 0 472 0 l 139 0 l 139 903 m 486 194 l 486 319 q 453 401 486 364 q 363 438 419 438 l 236 438 l 236 83 l 363 83 q 453 116 421 83 q 486 194 486 149 m 472 625 l 472 708 q 440 786 472 753 q 349 819 407 819 l 236 819 l 236 507 l 349 507 q 440 543 407 507 q 472 625 472 579 z "},"C":{"ha":681,"x_min":118,"x_max":576,"o":"m 479 174 l 479 250 l 576 250 l 576 174 q 519 30 576 81 q 349 -21 463 -21 q 176 30 235 -21 q 118 174 118 81 l 118 729 q 175 873 118 822 q 346 924 232 924 q 518 873 460 924 q 576 729 576 822 l 576 597 l 479 597 l 479 729 q 347 840 479 840 q 215 729 215 840 l 215 174 q 347 63 215 63 q 479 174 479 63 z "},"D":{"ha":701,"x_min":139,"x_max":583,"o":"m 363 0 l 139 0 l 139 903 l 363 903 q 527 851 471 903 q 583 708 583 800 l 583 194 q 528 51 583 101 q 363 0 472 0 m 486 194 l 486 708 q 453 786 486 753 q 363 819 421 819 l 236 819 l 236 83 l 363 83 q 453 116 421 83 q 486 194 486 149 z "},"E":{"ha":618,"x_min":139,"x_max":549,"o":"m 549 0 l 139 0 l 139 903 l 535 903 l 535 819 l 236 819 l 236 500 l 479 500 l 479 417 l 236 417 l 236 83 l 549 83 l 549 0 z "},"F":{"ha":576,"x_min":139,"x_max":521,"o":"m 236 0 l 139 0 l 139 903 l 521 903 l 521 819 l 236 819 l 236 500 l 465 500 l 465 417 l 236 417 l 236 0 z "},"G":{"ha":694,"x_min":118,"x_max":576,"o":"m 324 375 l 324 458 l 576 458 l 576 0 l 535 0 l 499 89 q 422 9 469 39 q 319 -21 375 -21 q 118 174 118 -21 l 118 729 q 175 873 118 822 q 346 924 232 924 q 518 873 460 924 q 576 729 576 822 l 576 653 l 479 653 l 479 729 q 347 840 479 840 q 215 729 215 840 l 215 174 q 238 92 215 121 q 319 63 260 63 q 428 110 378 63 q 479 201 479 157 l 479 375 l 324 375 z "},"H":{"ha":746,"x_min":139,"x_max":607,"o":"m 236 0 l 139 0 l 139 903 l 236 903 l 236 500 l 510 500 l 510 903 l 607 903 l 607 0 l 510 0 l 510 417 l 236 417 l 236 0 z "},"I":{"ha":431,"x_min":97,"x_max":333,"o":"m 333 83 l 333 0 l 97 0 l 97 83 l 167 83 l 167 819 l 97 819 l 97 903 l 333 903 l 333 819 l 264 819 l 264 83 l 333 83 z "},"J":{"ha":528,"x_min":28,"x_max":403,"o":"m 125 903 l 403 903 l 403 160 q 353 25 403 71 q 214 -21 303 -21 q 76 25 125 -21 q 28 160 28 71 l 28 250 l 125 250 l 125 154 q 214 63 125 63 q 306 154 306 63 l 306 819 l 125 819 l 125 903 z "},"K":{"ha":632,"x_min":140,"x_max":604,"o":"m 238 0 l 140 0 l 140 903 l 238 903 l 238 519 l 479 903 l 588 903 l 342 514 l 604 0 l 497 0 l 283 421 l 238 347 l 238 0 z "},"L":{"ha":518,"x_min":139,"x_max":490,"o":"m 139 0 l 139 903 l 236 903 l 236 83 l 490 83 l 490 0 l 139 0 z "},"M":{"ha":888,"x_min":139,"x_max":749,"o":"m 236 0 l 139 0 l 139 903 l 285 903 l 443 307 l 603 903 l 749 903 l 749 0 l 651 0 l 651 747 l 489 139 l 399 139 l 236 747 l 236 0 z "},"N":{"ha":774,"x_min":139,"x_max":635,"o":"m 236 0 l 139 0 l 139 903 l 236 903 l 538 208 l 538 903 l 635 903 l 635 0 l 538 0 l 236 694 l 236 0 z "},"O":{"ha":708,"x_min":118,"x_max":590,"o":"m 590 729 l 590 174 q 531 30 590 81 q 355 -21 472 -21 q 178 30 238 -21 q 118 174 118 81 l 118 729 q 177 873 118 822 q 353 924 236 924 q 531 873 471 924 q 590 729 590 822 m 493 174 l 493 729 q 354 840 493 840 q 215 729 215 840 l 215 174 q 354 63 215 63 q 493 174 493 63 z "},"P":{"ha":639,"x_min":125,"x_max":556,"o":"m 222 0 l 125 0 l 125 903 l 335 903 q 499 851 443 903 q 556 708 556 800 l 556 472 q 500 328 556 379 q 335 278 444 278 l 222 278 l 222 0 m 458 472 l 458 708 q 426 790 458 761 q 335 819 394 819 l 222 819 l 222 361 l 335 361 q 458 472 458 361 z "},"Q":{"ha":708,"x_min":118,"x_max":590,"o":"m 590 729 l 590 174 q 403 -18 590 3 l 444 -197 l 361 -197 l 319 -19 q 118 174 118 -3 l 118 729 q 177 873 118 822 q 353 924 236 924 q 531 873 471 924 q 590 729 590 822 m 493 174 l 493 729 q 354 840 493 840 q 215 729 215 840 l 215 174 q 354 63 215 63 q 493 174 493 63 z "},"R":{"ha":674,"x_min":139,"x_max":618,"o":"m 236 0 l 139 0 l 139 903 l 349 903 q 513 851 457 903 q 569 708 569 800 l 569 514 q 447 333 569 372 l 618 0 l 511 0 l 349 319 l 236 319 l 236 0 m 472 514 l 472 708 q 440 790 472 761 q 349 819 408 819 l 236 819 l 236 403 l 349 403 q 472 514 472 403 z "},"S":{"ha":692,"x_min":111,"x_max":581,"o":"m 581 174 q 346 -21 581 -21 q 111 174 111 -21 l 111 292 l 208 292 l 208 168 q 243 90 208 118 q 346 63 278 63 q 449 90 414 63 q 483 166 483 118 q 473 242 483 214 q 431 303 463 271 l 186 542 q 127 626 143 585 q 111 729 111 667 q 169 873 111 822 q 343 924 226 924 q 567 729 567 924 l 567 611 l 469 611 l 469 735 q 437 813 469 785 q 339 840 404 840 q 241 813 274 840 q 208 736 208 785 q 218 660 208 688 q 261 601 228 632 l 510 363 q 565 277 550 318 q 581 174 581 236 z "},"T":{"ha":542,"x_min":42,"x_max":500,"o":"m 500 903 l 500 819 l 319 819 l 319 0 l 222 0 l 222 819 l 42 819 l 42 903 l 500 903 z "},"U":{"ha":722,"x_min":125,"x_max":597,"o":"m 500 174 l 500 903 l 597 903 l 597 174 q 538 30 597 81 q 362 -21 479 -21 q 185 30 244 -21 q 125 174 125 81 l 125 903 l 222 903 l 222 174 q 361 63 222 63 q 500 174 500 63 z "},"V":{"ha":665,"x_min":56,"x_max":610,"o":"m 406 0 l 260 0 l 56 903 l 153 903 l 332 107 l 513 903 l 610 903 l 406 0 z "},"W":{"ha":949,"x_min":63,"x_max":886,"o":"m 333 0 l 197 0 l 63 903 l 160 903 l 274 140 l 422 903 l 526 903 l 675 140 l 789 903 l 886 903 l 751 0 l 615 0 l 474 721 l 333 0 z "},"X":{"ha":628,"x_min":56,"x_max":572,"o":"m 572 0 l 471 0 l 314 351 l 157 0 l 56 0 l 264 465 l 69 903 l 171 903 l 319 567 l 471 903 l 572 903 l 371 453 l 572 0 z "},"Y":{"ha":625,"x_min":35,"x_max":590,"o":"m 361 0 l 264 0 l 264 324 l 35 903 l 138 903 l 313 438 l 488 903 l 590 903 l 361 322 l 361 0 z "},"Z":{"ha":579,"x_min":49,"x_max":524,"o":"m 69 819 l 69 903 l 524 903 l 524 819 l 150 83 l 517 83 l 517 0 l 49 0 l 49 83 l 422 819 l 69 819 z "},"[":{"ha":447,"x_min":118,"x_max":357,"o":"m 118 -83 l 118 986 l 357 986 l 357 903 l 215 903 l 215 0 l 356 0 l 356 -83 l 118 -83 z "},"\\":{"ha":528,"x_min":83,"x_max":444,"o":"m 444 -139 l 361 -139 l 83 1042 l 167 1042 l 444 -139 z "},"]":{"ha":447,"x_min":35,"x_max":274,"o":"m 274 986 l 274 -83 l 36 -83 l 36 0 l 176 0 l 176 903 l 35 903 l 35 986 l 274 986 z "},"^":{"ha":708,"x_min":139,"x_max":569,"o":"m 324 903 l 385 903 l 569 586 l 496 549 l 354 796 l 213 549 l 139 586 l 324 903 z "},"_":{"ha":583,"x_min":26,"x_max":557,"o":"m 557 0 l 557 -83 l 26 -83 l 26 0 l 557 0 z "},"`":{"ha":440,"x_min":125,"x_max":371,"o":"m 178 1049 l 125 1101 l 200 1176 l 371 1006 l 335 969 l 178 1049 z "},"a":{"ha":694,"x_min":111,"x_max":569,"o":"m 569 0 l 528 0 l 492 89 q 415 9 463 39 q 311 -21 368 -21 q 111 174 111 -21 l 111 313 q 311 507 111 507 l 472 507 l 472 735 q 440 813 472 785 q 346 840 408 840 q 222 735 222 840 l 222 653 l 125 653 l 125 729 q 180 873 125 822 q 346 924 235 924 q 513 873 457 924 q 569 729 569 822 l 569 0 m 472 424 l 311 424 q 231 394 253 424 q 208 313 208 365 l 208 174 q 231 92 208 121 q 311 63 253 63 q 419 108 369 63 q 472 197 469 153 l 472 424 z "},"b":{"ha":701,"x_min":139,"x_max":583,"o":"m 139 903 l 349 903 q 513 851 457 903 q 569 708 569 800 l 569 625 q 471 474 569 507 q 583 319 583 443 l 583 194 q 528 51 583 101 q 363 0 472 0 l 139 0 l 139 903 m 486 194 l 486 319 q 454 405 486 372 q 363 438 422 438 l 236 438 l 236 83 l 363 83 q 486 194 486 83 m 472 625 l 472 708 q 440 790 472 761 q 349 819 408 819 l 236 819 l 236 507 l 349 507 q 441 539 410 507 q 472 625 472 571 z "},"c":{"ha":681,"x_min":118,"x_max":576,"o":"m 479 174 l 479 250 l 576 250 l 576 174 q 519 30 576 81 q 349 -21 463 -21 q 176 30 235 -21 q 118 174 118 81 l 118 729 q 175 873 118 822 q 346 924 232 924 q 518 873 460 924 q 576 729 576 822 l 576 597 l 479 597 l 479 729 q 347 840 479 840 q 215 729 215 840 l 215 174 q 347 63 215 63 q 479 174 479 63 z "},"d":{"ha":701,"x_min":139,"x_max":583,"o":"m 363 0 l 139 0 l 139 903 l 363 903 q 527 851 471 903 q 583 708 583 800 l 583 194 q 528 51 583 101 q 363 0 472 0 m 486 194 l 486 708 q 454 790 486 761 q 363 819 422 819 l 236 819 l 236 83 l 363 83 q 486 194 486 83 z "},"e":{"ha":694,"x_min":118,"x_max":576,"o":"m 479 174 l 479 250 l 576 250 l 576 174 q 519 30 576 81 q 349 -21 463 -21 q 176 30 235 -21 q 118 174 118 81 l 118 729 q 175 873 118 822 q 346 924 232 924 q 518 873 460 924 q 576 729 576 822 l 576 424 l 215 424 l 215 174 q 347 63 215 63 q 479 174 479 63 m 215 729 l 215 507 l 479 507 l 479 729 q 347 840 479 840 q 215 729 215 840 z "},"f":{"ha":576,"x_min":139,"x_max":521,"o":"m 236 0 l 139 0 l 139 903 l 521 903 l 521 819 l 236 819 l 236 500 l 465 500 l 465 417 l 236 417 l 236 0 z "},"g":{"ha":694,"x_min":118,"x_max":576,"o":"m 324 375 l 324 458 l 576 458 l 576 174 q 519 30 576 81 q 349 -21 463 -21 q 176 30 235 -21 q 118 174 118 81 l 118 729 q 175 873 118 822 q 346 924 232 924 q 518 873 460 924 q 576 729 576 822 l 576 653 l 479 653 l 479 729 q 347 840 479 840 q 215 729 215 840 l 215 174 q 347 63 215 63 q 479 174 479 63 l 479 375 l 324 375 z "},"h":{"ha":746,"x_min":139,"x_max":607,"o":"m 236 0 l 139 0 l 139 903 l 236 903 l 236 500 l 510 500 l 510 903 l 607 903 l 607 0 l 510 0 l 510 417 l 236 417 l 236 0 z "},"i":{"ha":375,"x_min":139,"x_max":236,"o":"m 236 0 l 139 0 l 139 903 l 236 903 l 236 0 z "},"j":{"ha":528,"x_min":28,"x_max":403,"o":"m 306 903 l 403 903 l 403 160 q 353 25 403 71 q 214 -21 303 -21 q 76 25 125 -21 q 28 160 28 71 l 28 250 l 125 250 l 125 154 q 214 63 125 63 q 306 154 306 63 l 306 903 z "},"k":{"ha":632,"x_min":140,"x_max":604,"o":"m 238 0 l 140 0 l 140 903 l 238 903 l 238 519 l 479 903 l 588 903 l 342 514 l 604 0 l 497 0 l 283 421 l 238 347 l 238 0 z "},"l":{"ha":518,"x_min":139,"x_max":490,"o":"m 139 0 l 139 903 l 236 903 l 236 83 l 490 83 l 490 0 l 139 0 z "},"m":{"ha":1069,"x_min":139,"x_max":944,"o":"m 236 0 l 139 0 l 139 903 l 181 903 l 215 814 q 292 894 244 864 q 394 924 339 924 q 574 822 535 924 q 749 924 640 924 q 944 729 944 924 l 944 0 l 847 0 l 847 729 q 747 840 847 840 q 640 793 689 840 q 590 701 590 746 l 590 0 l 493 0 l 493 729 q 393 840 493 840 q 285 795 335 840 q 236 706 236 750 l 236 0 z "},"n":{"ha":729,"x_min":139,"x_max":604,"o":"m 236 0 l 139 0 l 139 903 l 181 903 l 215 813 q 400 924 282 924 q 604 729 604 924 l 604 0 l 507 0 l 507 729 q 484 811 507 782 q 400 840 461 840 q 288 793 339 840 q 236 701 236 746 l 236 0 z "},"o":{"ha":708,"x_min":118,"x_max":590,"o":"m 590 729 l 590 174 q 531 30 590 81 q 355 -21 472 -21 q 178 30 238 -21 q 118 174 118 81 l 118 729 q 177 873 118 822 q 353 924 236 924 q 531 873 471 924 q 590 729 590 822 m 493 174 l 493 729 q 354 840 493 840 q 215 729 215 840 l 215 174 q 354 63 215 63 q 493 174 493 63 z "},"p":{"ha":639,"x_min":125,"x_max":556,"o":"m 222 0 l 125 0 l 125 903 l 335 903 q 499 851 443 903 q 556 708 556 800 l 556 472 q 500 328 556 379 q 335 278 444 278 l 222 278 l 222 0 m 458 472 l 458 708 q 426 790 458 761 q 335 819 394 819 l 222 819 l 222 361 l 335 361 q 458 472 458 361 z "},"q":{"ha":708,"x_min":118,"x_max":708,"o":"m 590 729 l 590 174 q 507 25 590 71 l 708 -14 l 693 -87 l 356 -21 q 178 30 238 -21 q 118 174 118 81 l 118 729 q 177 873 118 822 q 353 924 236 924 q 531 873 471 924 q 590 729 590 822 m 493 174 l 493 729 q 354 840 493 840 q 215 729 215 840 l 215 174 q 354 63 215 63 q 493 174 493 63 z "},"r":{"ha":556,"x_min":139,"x_max":528,"o":"m 236 0 l 139 0 l 139 903 l 181 903 l 221 800 q 363 924 265 924 q 528 743 528 924 l 528 653 l 435 653 l 435 749 q 358 840 435 840 q 274 788 313 840 q 236 635 236 735 l 236 0 z "},"s":{"ha":692,"x_min":111,"x_max":581,"o":"m 581 174 q 346 -21 581 -21 q 111 174 111 -21 l 111 292 l 208 292 l 208 168 q 243 90 208 118 q 346 63 278 63 q 449 90 414 63 q 483 166 483 118 q 473 242 483 214 q 431 303 463 271 l 186 542 q 127 626 143 585 q 111 729 111 667 q 169 873 111 822 q 343 924 226 924 q 567 729 567 924 l 567 611 l 469 611 l 469 735 q 437 813 469 785 q 339 840 404 840 q 241 813 274 840 q 208 736 208 785 q 218 660 208 688 q 261 601 228 632 l 510 363 q 565 277 550 318 q 581 174 581 236 z "},"t":{"ha":521,"x_min":118,"x_max":465,"o":"m 118 903 l 424 903 l 424 819 l 215 819 l 215 154 q 235 89 215 115 q 292 63 256 63 q 349 88 329 63 q 368 154 368 114 l 368 319 l 465 319 l 465 160 q 419 26 465 72 q 293 -21 372 -21 q 166 26 214 -21 q 118 160 118 72 l 118 903 z "},"u":{"ha":729,"x_min":125,"x_max":590,"o":"m 125 174 l 125 903 l 222 903 l 222 174 q 245 92 222 121 q 329 63 268 63 q 442 110 390 63 q 493 201 493 157 l 493 903 l 590 903 l 590 0 l 549 0 l 513 89 q 434 9 482 39 q 329 -21 386 -21 q 125 174 125 -21 z "},"v":{"ha":665,"x_min":56,"x_max":610,"o":"m 406 0 l 260 0 l 56 903 l 153 903 l 332 107 l 513 903 l 610 903 l 406 0 z "},"w":{"ha":1056,"x_min":125,"x_max":931,"o":"m 479 174 l 479 903 l 576 903 l 576 174 q 705 63 576 63 q 833 174 833 63 l 833 903 l 931 903 l 931 174 q 872 31 931 82 q 699 -21 814 -21 q 528 60 585 -21 q 358 -21 474 -21 q 183 31 242 -21 q 125 174 125 82 l 125 903 l 222 903 l 222 174 q 351 63 222 63 q 479 174 479 63 z "},"x":{"ha":628,"x_min":56,"x_max":572,"o":"m 572 0 l 471 0 l 314 351 l 157 0 l 56 0 l 264 465 l 69 903 l 171 903 l 319 567 l 471 903 l 572 903 l 371 453 l 572 0 z "},"y":{"ha":653,"x_min":90,"x_max":563,"o":"m 376 0 l 279 0 l 279 256 q 90 447 90 276 l 90 903 l 188 903 l 188 447 q 326 336 188 336 q 465 447 465 336 l 465 903 l 563 903 l 563 447 q 376 256 563 276 l 376 0 z "},"z":{"ha":579,"x_min":49,"x_max":524,"o":"m 69 819 l 69 903 l 524 903 l 524 819 l 150 83 l 517 83 l 517 0 l 49 0 l 49 83 l 422 819 l 69 819 z "},"{":{"ha":447,"x_min":36,"x_max":357,"o":"m 118 104 l 118 339 q 97 393 118 369 q 36 417 75 417 l 36 486 q 97 510 75 486 q 118 564 118 533 l 118 799 q 178 942 118 892 q 357 993 238 993 l 357 910 q 215 799 215 910 l 215 564 q 118 456 215 478 l 118 444 q 215 339 215 422 l 215 104 q 357 -7 215 -7 l 357 -90 q 178 -40 238 -90 q 118 104 118 11 z "},"|":{"ha":375,"x_min":153,"x_max":236,"o":"m 153 -139 l 153 1042 l 236 1042 l 236 -139 l 153 -139 z "},"}":{"ha":447,"x_min":35,"x_max":356,"o":"m 274 339 l 274 104 q 214 -40 274 11 q 35 -90 154 -90 l 35 -7 q 176 104 176 -7 l 176 339 q 274 444 176 422 l 274 456 q 176 564 176 478 l 176 799 q 35 910 176 910 l 35 993 q 214 942 154 993 q 274 799 274 892 l 274 564 q 295 510 274 533 q 356 486 317 486 l 356 417 q 295 393 317 417 q 274 339 274 369 z "},"~":{"ha":708,"x_min":132,"x_max":576,"o":"m 576 410 q 482 442 529 442 q 356 408 435 442 q 226 374 278 374 q 132 410 174 374 l 132 493 q 221 457 175 457 q 345 491 267 457 q 474 525 424 525 q 576 493 525 525 l 576 410 z "}," ":{"ha":319,"x_min":0,"x_max":0,"o":""},"¡":{"ha":403,"x_min":146,"x_max":257,"o":"m 153 903 l 250 903 l 250 750 l 153 750 l 153 903 m 146 0 l 146 340 l 167 611 l 236 611 l 257 340 l 257 0 l 146 0 z "},"¢":{"ha":708,"x_min":132,"x_max":590,"o":"m 340 -139 l 340 49 q 185 105 238 54 q 132 243 132 156 l 132 660 q 340 853 132 844 l 340 1042 l 410 1042 l 410 851 q 544 791 499 840 q 590 660 590 742 l 590 569 l 493 569 l 493 660 q 410 765 493 744 l 410 136 q 493 243 493 154 l 493 278 l 590 278 l 590 243 q 410 51 590 72 l 410 -139 l 340 -139 m 229 243 q 340 132 229 142 l 340 769 q 229 660 229 761 l 229 243 z "},"£":{"ha":708,"x_min":69,"x_max":594,"o":"m 594 83 l 594 0 l 85 0 l 126 76 l 132 361 l 69 361 l 69 431 l 133 431 l 139 729 q 371 924 143 924 q 528 873 475 924 q 581 729 581 822 l 581 611 l 483 611 l 483 735 q 454 813 483 785 q 367 840 425 840 q 236 735 239 840 l 231 431 l 497 431 l 497 361 l 229 361 l 224 83 l 594 83 z "},"¤":{"ha":708,"x_min":31,"x_max":678,"o":"m 564 486 l 564 417 q 542 313 564 356 l 678 176 l 629 128 l 497 260 q 357 222 447 222 q 213 261 267 222 l 79 128 l 31 176 l 168 314 q 147 417 147 357 l 147 486 q 168 589 147 549 l 31 726 l 79 775 l 213 642 q 353 681 264 681 q 496 642 442 681 l 629 775 l 678 726 l 542 590 q 564 486 564 547 m 467 417 l 467 486 q 354 597 467 597 q 244 486 244 597 l 244 417 q 357 306 244 306 q 467 417 467 306 z "},"¥":{"ha":708,"x_min":76,"x_max":632,"o":"m 403 0 l 306 0 l 306 153 l 104 153 l 104 222 l 306 222 l 306 324 l 290 361 l 104 361 l 104 431 l 263 431 l 76 903 l 179 903 l 354 438 l 529 903 l 632 903 l 444 431 l 604 431 l 604 361 l 417 361 l 403 324 l 403 222 l 604 222 l 604 153 l 403 153 l 403 0 z "},"¦":{"ha":375,"x_min":153,"x_max":236,"o":"m 153 -139 l 153 306 l 236 306 l 236 -139 l 153 -139 m 153 597 l 153 1042 l 236 1042 l 236 597 l 153 597 z "},"§":{"ha":664,"x_min":97,"x_max":567,"o":"m 208 472 l 293 472 l 486 281 q 567 111 567 200 l 567 97 q 509 -47 567 4 q 335 -97 451 -97 q 111 97 111 -97 l 111 174 l 208 174 l 208 92 q 241 14 208 42 q 339 -14 274 -14 q 437 14 404 -14 q 469 92 469 42 l 469 111 q 449 174 469 144 q 357 276 429 204 l 208 424 l 208 472 m 456 451 l 371 451 l 178 643 q 97 813 97 724 l 97 826 q 155 970 97 919 q 329 1021 213 1021 q 553 826 553 1021 l 553 750 l 456 750 l 456 832 q 423 910 456 882 q 325 938 390 938 q 227 910 260 938 q 194 832 194 882 l 194 813 q 215 749 194 779 q 307 647 235 719 l 456 500 l 456 451 z "},"¨":{"ha":528,"x_min":118,"x_max":410,"o":"m 215 993 l 118 993 l 118 1146 l 215 1146 l 215 993 m 410 993 l 313 993 l 313 1146 l 410 1146 l 410 993 z "},"©":{"ha":694,"x_min":111,"x_max":583,"o":"m 401 508 l 401 556 l 468 556 l 468 508 q 438 431 468 458 q 347 403 407 403 q 256 431 286 403 q 225 508 225 458 l 225 721 q 347 826 225 826 q 468 721 468 826 l 468 647 l 401 647 l 401 721 q 347 767 401 767 q 292 721 292 767 l 292 508 q 347 463 292 463 q 401 508 401 463 m 583 729 l 583 497 q 524 353 583 404 q 348 303 465 303 q 171 353 231 303 q 111 497 111 404 l 111 729 q 170 873 111 822 q 347 924 229 924 q 524 873 464 924 q 583 729 583 822 m 535 497 l 535 729 q 347 882 535 882 q 160 729 160 882 l 160 497 q 347 344 160 344 q 535 497 535 344 z "},"ª":{"ha":478,"x_min":111,"x_max":353,"o":"m 353 553 l 331 553 l 304 597 q 218 542 269 542 q 111 646 111 542 l 111 671 q 218 775 111 775 l 288 775 l 288 864 q 235 907 288 907 q 183 864 183 907 l 183 829 l 118 829 l 118 861 q 235 965 118 965 q 353 861 353 965 l 353 553 m 218 601 q 265 620 243 601 q 288 657 288 639 l 288 718 l 218 718 q 178 674 178 718 l 178 646 q 218 601 178 601 z "},"«":{"ha":628,"x_min":83,"x_max":572,"o":"m 174 451 l 336 244 l 268 185 l 83 421 l 83 482 l 268 718 l 336 658 l 174 451 m 410 451 l 572 244 l 504 185 l 319 421 l 319 482 l 504 718 l 572 658 l 410 451 z "},"¬":{"ha":708,"x_min":132,"x_max":576,"o":"m 501 410 l 132 410 l 132 493 l 576 493 l 576 243 l 501 243 l 501 410 z "},"®":{"ha":694,"x_min":111,"x_max":583,"o":"m 583 729 l 583 497 q 524 353 583 404 q 348 303 465 303 q 171 353 231 303 q 111 497 111 404 l 111 729 q 170 873 111 822 q 347 924 229 924 q 524 873 464 924 q 583 729 583 822 m 535 497 l 535 729 q 347 882 535 882 q 160 729 160 882 l 160 497 q 347 344 160 344 q 535 497 535 344 m 301 417 l 235 417 l 235 813 l 346 813 q 434 784 404 813 q 464 707 464 756 l 464 664 q 408 571 464 593 l 486 417 l 414 417 l 344 560 l 301 560 l 301 417 m 397 664 l 397 707 q 346 753 397 753 l 301 753 l 301 619 l 346 619 q 397 664 397 619 z "},"¯":{"ha":508,"x_min":104,"x_max":404,"o":"m 104 1028 l 104 1111 l 404 1111 l 404 1028 l 104 1028 z "},"°":{"ha":526,"x_min":118,"x_max":408,"o":"m 408 819 l 408 647 q 263 543 408 543 q 118 647 118 543 l 118 819 q 263 924 118 924 q 408 819 408 924 m 342 647 l 342 819 q 263 865 342 865 q 185 819 185 865 l 185 647 q 263 603 185 603 q 342 647 342 603 z "},"±":{"ha":708,"x_min":132,"x_max":576,"o":"m 313 674 l 396 674 l 396 493 l 576 493 l 576 410 l 396 410 l 396 229 l 313 229 l 313 410 l 132 410 l 132 493 l 313 493 l 313 674 m 576 83 l 576 0 l 132 0 l 132 83 l 576 83 z "},"²":{"ha":424,"x_min":89,"x_max":338,"o":"m 89 507 l 89 561 l 229 733 q 271 806 271 786 l 271 814 q 217 857 271 857 q 163 814 163 857 l 163 786 l 96 786 l 96 811 q 217 917 96 917 q 338 811 338 917 l 338 806 q 272 685 338 764 l 174 567 l 336 567 l 336 507 l 89 507 z "},"³":{"ha":424,"x_min":86,"x_max":335,"o":"m 328 811 l 328 774 q 281 700 328 722 q 335 625 335 681 l 335 599 q 210 493 335 493 q 86 599 86 493 l 86 617 l 153 617 l 153 596 q 210 553 153 553 q 268 596 268 553 l 268 625 q 254 658 268 643 q 218 674 240 674 l 153 674 l 153 726 l 211 726 q 248 741 235 726 q 261 774 261 756 l 261 814 q 207 857 261 857 q 153 814 153 857 l 153 786 l 86 786 l 86 811 q 207 917 86 917 q 328 811 328 917 z "},"´":{"ha":440,"x_min":139,"x_max":385,"o":"m 385 1101 l 332 1049 l 175 969 l 139 1006 l 310 1176 l 385 1101 z "},"µ":{"ha":729,"x_min":125,"x_max":590,"o":"m 125 764 l 222 764 l 222 174 q 245 92 222 121 q 329 63 268 63 q 442 110 390 63 q 493 201 493 157 l 493 764 l 590 764 l 590 0 l 549 0 l 513 89 q 434 9 482 39 q 329 -21 386 -21 q 196 25 239 -21 l 222 -139 l 222 -347 l 125 -347 l 125 764 z "},"¶":{"ha":664,"x_min":69,"x_max":525,"o":"m 332 0 l 235 0 l 235 383 l 200 426 q 97 566 124 519 q 69 660 69 613 l 69 729 q 127 873 69 822 q 301 924 185 924 q 525 729 525 924 l 525 0 l 428 0 l 428 735 q 395 813 428 785 q 297 840 363 840 q 199 813 232 840 q 167 735 167 785 l 167 660 q 186 598 167 626 q 213 560 206 569 q 244 521 219 550 q 275 485 269 492 l 332 417 l 332 0 z "},"·":{"ha":361,"x_min":118,"x_max":243,"o":"m 243 375 l 118 375 l 118 528 l 243 528 l 243 375 z "},"¸":{"ha":424,"x_min":100,"x_max":349,"o":"m 232 -86 q 319 -116 289 -86 q 349 -196 349 -146 l 349 -228 q 224 -333 349 -333 q 100 -228 100 -333 l 100 -217 l 167 -217 l 167 -231 q 224 -274 167 -274 q 282 -231 282 -274 l 282 -196 q 268 -161 282 -176 q 232 -146 254 -146 l 149 -146 l 178 3 l 243 3 l 225 -86 l 232 -86 z "},"¹":{"ha":424,"x_min":79,"x_max":261,"o":"m 261 903 l 261 507 l 194 507 l 194 831 l 108 782 l 79 831 l 201 903 l 261 903 z "},"º":{"ha":485,"x_min":118,"x_max":367,"o":"m 367 863 l 367 647 q 242 543 367 543 q 118 647 118 543 l 118 863 q 242 967 118 967 q 367 863 367 967 m 300 647 l 300 863 q 242 908 300 908 q 185 863 185 908 l 185 647 q 242 603 185 603 q 300 647 300 603 z "},"»":{"ha":628,"x_min":56,"x_max":544,"o":"m 454 451 l 292 658 l 360 718 l 544 482 l 544 421 l 360 185 l 292 244 l 454 451 m 218 451 l 56 658 l 124 718 l 308 482 l 308 421 l 124 185 l 56 244 l 218 451 z "},"¼":{"ha":549,"x_min":97,"x_max":451,"o":"m 97 439 l 97 479 l 451 479 l 451 439 l 97 439 m 310 914 l 310 518 l 243 518 l 243 842 l 157 793 l 128 842 l 250 914 l 310 914 m 353 396 l 353 133 l 388 133 l 388 74 l 353 74 l 353 0 l 286 0 l 286 74 l 106 74 l 106 128 l 290 396 l 353 396 m 286 133 l 286 281 l 179 133 l 286 133 z "},"½":{"ha":549,"x_min":97,"x_max":451,"o":"m 97 439 l 97 479 l 451 479 l 451 439 l 97 439 m 310 914 l 310 518 l 243 518 l 243 842 l 157 793 l 128 842 l 250 914 l 310 914 m 150 0 l 150 54 l 290 226 q 332 299 332 278 l 332 307 q 278 350 332 350 q 224 307 224 350 l 224 279 l 157 279 l 157 304 q 278 410 157 410 q 399 304 399 410 l 399 299 q 333 178 399 257 l 235 60 l 397 60 l 397 0 l 150 0 z "},"¾":{"ha":549,"x_min":97,"x_max":451,"o":"m 97 439 l 97 479 l 451 479 l 451 439 l 97 439 m 392 822 l 392 785 q 344 711 392 733 q 399 636 399 692 l 399 610 q 274 504 399 504 q 150 610 150 504 l 150 628 l 217 628 l 217 607 q 274 564 217 564 q 332 607 332 564 l 332 636 q 318 669 332 654 q 282 685 304 685 l 217 685 l 217 738 l 275 738 q 312 752 299 738 q 325 785 325 767 l 325 825 q 271 868 325 868 q 217 825 217 868 l 217 797 l 150 797 l 150 822 q 271 928 150 928 q 392 822 392 928 m 353 396 l 353 133 l 388 133 l 388 74 l 353 74 l 353 0 l 286 0 l 286 74 l 106 74 l 106 128 l 290 396 l 353 396 m 286 133 l 286 281 l 179 133 l 286 133 z "},"¿":{"ha":608,"x_min":28,"x_max":483,"o":"m 211 903 l 308 903 l 308 750 l 211 750 l 211 903 m 290 611 l 290 528 l 233 446 q 213 417 228 439 q 190 385 197 394 q 171 356 183 375 q 152 324 158 336 q 139 297 146 313 q 125 243 125 269 l 125 168 q 158 90 125 118 q 256 63 190 63 q 353 90 321 63 q 386 168 386 118 l 386 292 l 483 292 l 483 174 q 260 -21 483 -21 q 85 30 143 -21 q 28 174 28 81 l 28 243 q 58 348 28 290 q 158 504 88 406 l 235 611 l 290 611 z "},"À":{"ha":665,"x_min":56,"x_max":610,"o":"m 260 903 l 406 903 l 610 0 l 513 0 l 465 208 l 200 208 l 153 0 l 56 0 l 260 903 m 332 794 l 218 292 l 446 292 l 332 794 m 263 1049 l 210 1101 l 285 1176 l 456 1006 l 419 969 l 263 1049 z "},"Á":{"ha":665,"x_min":56,"x_max":610,"o":"m 260 903 l 406 903 l 610 0 l 513 0 l 465 208 l 200 208 l 153 0 l 56 0 l 260 903 m 332 794 l 218 292 l 446 292 l 332 794 m 456 1101 l 403 1049 l 246 969 l 210 1006 l 381 1176 l 456 1101 z "},"Â":{"ha":665,"x_min":56,"x_max":610,"o":"m 260 903 l 406 903 l 610 0 l 513 0 l 465 208 l 200 208 l 153 0 l 56 0 l 260 903 m 332 794 l 218 292 l 446 292 l 332 794 m 332 1056 l 210 969 l 174 1006 l 310 1163 l 354 1163 l 490 1006 l 454 969 l 332 1056 z "},"Ã":{"ha":665,"x_min":56,"x_max":610,"o":"m 260 903 l 406 903 l 610 0 l 513 0 l 465 208 l 200 208 l 153 0 l 56 0 l 260 903 m 332 794 l 218 292 l 446 292 l 332 794 m 392 1054 q 332 1028 371 1054 q 258 1001 293 1001 q 197 1029 222 1001 q 168 1104 172 1057 l 225 1124 q 272 1085 239 1085 q 332 1111 293 1085 q 406 1138 371 1138 q 467 1110 442 1138 q 496 1035 492 1082 l 439 1015 q 392 1054 425 1054 z "},"Ä":{"ha":665,"x_min":56,"x_max":610,"o":"m 260 903 l 406 903 l 610 0 l 513 0 l 465 208 l 200 208 l 153 0 l 56 0 l 260 903 m 332 794 l 218 292 l 446 292 l 332 794 m 283 993 l 186 993 l 186 1146 l 283 1146 l 283 993 m 478 993 l 381 993 l 381 1146 l 478 1146 l 478 993 z "},"Å":{"ha":665,"x_min":56,"x_max":610,"o":"m 260 903 l 406 903 l 610 0 l 513 0 l 465 208 l 200 208 l 153 0 l 56 0 l 260 903 m 332 794 l 218 292 l 446 292 l 332 794 m 450 1083 l 450 1056 q 332 951 450 951 q 214 1056 214 951 l 214 1083 q 332 1188 214 1188 q 450 1083 450 1188 m 283 1083 l 283 1056 q 332 1013 283 1013 q 381 1056 381 1013 l 381 1083 q 332 1126 381 1126 q 283 1083 283 1126 z "},"Æ":{"ha":944,"x_min":0,"x_max":875,"o":"m 861 903 l 861 819 l 563 819 l 563 444 l 806 444 l 806 361 l 563 361 l 563 83 l 875 83 l 875 0 l 465 0 l 465 361 l 229 361 l 97 0 l 0 0 l 329 903 l 861 903 m 465 444 l 465 819 l 396 819 l 260 444 l 465 444 z "},"Ç":{"ha":681,"x_min":118,"x_max":576,"o":"m 479 174 l 479 250 l 576 250 l 576 174 q 367 -19 576 -11 l 354 -86 l 361 -86 q 448 -116 418 -86 q 478 -196 478 -146 l 478 -228 q 353 -333 478 -333 q 229 -228 229 -333 l 229 -217 l 296 -217 l 296 -231 q 353 -274 296 -274 q 411 -231 411 -274 l 411 -196 q 397 -161 411 -176 q 361 -146 383 -146 l 278 -146 l 303 -18 q 165 41 211 -8 q 118 174 118 90 l 118 729 q 175 873 118 822 q 346 924 232 924 q 518 873 460 924 q 576 729 576 822 l 576 597 l 479 597 l 479 729 q 347 840 479 840 q 215 729 215 840 l 215 174 q 347 63 215 63 q 479 174 479 63 z "},"È":{"ha":618,"x_min":139,"x_max":549,"o":"m 549 0 l 139 0 l 139 903 l 535 903 l 535 819 l 236 819 l 236 500 l 479 500 l 479 417 l 236 417 l 236 83 l 549 83 l 549 0 m 267 1049 l 214 1101 l 289 1176 l 460 1006 l 424 969 l 267 1049 z "},"É":{"ha":618,"x_min":139,"x_max":549,"o":"m 549 0 l 139 0 l 139 903 l 535 903 l 535 819 l 236 819 l 236 500 l 479 500 l 479 417 l 236 417 l 236 83 l 549 83 l 549 0 m 474 1101 l 421 1049 l 264 969 l 228 1006 l 399 1176 l 474 1101 z "},"Ê":{"ha":618,"x_min":139,"x_max":549,"o":"m 549 0 l 139 0 l 139 903 l 535 903 l 535 819 l 236 819 l 236 500 l 479 500 l 479 417 l 236 417 l 236 83 l 549 83 l 549 0 m 350 1056 l 228 969 l 192 1006 l 328 1163 l 372 1163 l 508 1006 l 472 969 l 350 1056 z "},"Ë":{"ha":618,"x_min":139,"x_max":549,"o":"m 549 0 l 139 0 l 139 903 l 535 903 l 535 819 l 236 819 l 236 500 l 479 500 l 479 417 l 236 417 l 236 83 l 549 83 l 549 0 m 301 993 l 204 993 l 204 1146 l 301 1146 l 301 993 m 496 993 l 399 993 l 399 1146 l 496 1146 l 496 993 z "},"Ì":{"ha":431,"x_min":93,"x_max":339,"o":"m 333 83 l 333 0 l 97 0 l 97 83 l 167 83 l 167 819 l 97 819 l 97 903 l 333 903 l 333 819 l 264 819 l 264 83 l 333 83 m 146 1049 l 93 1101 l 168 1176 l 339 1006 l 303 969 l 146 1049 z "},"Í":{"ha":431,"x_min":93,"x_max":339,"o":"m 333 83 l 333 0 l 97 0 l 97 83 l 167 83 l 167 819 l 97 819 l 97 903 l 333 903 l 333 819 l 264 819 l 264 83 l 333 83 m 339 1101 l 286 1049 l 129 969 l 93 1006 l 264 1176 l 339 1101 z "},"Î":{"ha":431,"x_min":57,"x_max":374,"o":"m 333 83 l 333 0 l 97 0 l 97 83 l 167 83 l 167 819 l 97 819 l 97 903 l 333 903 l 333 819 l 264 819 l 264 83 l 333 83 m 215 1056 l 93 969 l 57 1006 l 193 1163 l 238 1163 l 374 1006 l 338 969 l 215 1056 z "},"Ï":{"ha":431,"x_min":69,"x_max":361,"o":"m 333 83 l 333 0 l 97 0 l 97 83 l 167 83 l 167 819 l 97 819 l 97 903 l 333 903 l 333 819 l 264 819 l 264 83 l 333 83 m 167 993 l 69 993 l 69 1146 l 167 1146 l 167 993 m 361 993 l 264 993 l 264 1146 l 361 1146 l 361 993 z "},"Ð":{"ha":701,"x_min":43,"x_max":583,"o":"m 43 424 l 43 493 l 139 493 l 139 903 l 363 903 q 527 851 471 903 q 583 708 583 800 l 583 194 q 528 51 583 101 q 363 0 472 0 l 139 0 l 139 424 l 43 424 m 486 194 l 486 708 q 453 786 486 753 q 363 819 421 819 l 236 819 l 236 493 l 404 493 l 404 424 l 236 424 l 236 83 l 363 83 q 453 116 421 83 q 486 194 486 149 z "},"Ñ":{"ha":774,"x_min":139,"x_max":635,"o":"m 236 0 l 139 0 l 139 903 l 236 903 l 538 208 l 538 903 l 635 903 l 635 0 l 538 0 l 236 694 l 236 0 m 446 1054 q 386 1028 425 1054 q 312 1001 347 1001 q 251 1029 276 1001 q 222 1104 226 1057 l 279 1124 q 326 1085 293 1085 q 386 1111 347 1085 q 460 1138 425 1138 q 521 1110 496 1138 q 550 1035 546 1082 l 493 1015 q 446 1054 479 1054 z "},"Ò":{"ha":708,"x_min":118,"x_max":590,"o":"m 590 729 l 590 174 q 531 30 590 81 q 355 -21 472 -21 q 178 30 238 -21 q 118 174 118 81 l 118 729 q 177 873 118 822 q 353 924 236 924 q 531 873 471 924 q 590 729 590 822 m 493 174 l 493 729 q 354 840 493 840 q 215 729 215 840 l 215 174 q 354 63 215 63 q 493 174 493 63 m 283 1049 l 231 1101 l 306 1176 l 476 1006 l 440 969 l 283 1049 z "},"Ó":{"ha":708,"x_min":118,"x_max":590,"o":"m 590 729 l 590 174 q 531 30 590 81 q 355 -21 472 -21 q 178 30 238 -21 q 118 174 118 81 l 118 729 q 177 873 118 822 q 353 924 236 924 q 531 873 471 924 q 590 729 590 822 m 493 174 l 493 729 q 354 840 493 840 q 215 729 215 840 l 215 174 q 354 63 215 63 q 493 174 493 63 m 476 1101 l 424 1049 l 267 969 l 231 1006 l 401 1176 l 476 1101 z "},"Ô":{"ha":708,"x_min":118,"x_max":590,"o":"m 590 729 l 590 174 q 531 30 590 81 q 355 -21 472 -21 q 178 30 238 -21 q 118 174 118 81 l 118 729 q 177 873 118 822 q 353 924 236 924 q 531 873 471 924 q 590 729 590 822 m 493 174 l 493 729 q 354 840 493 840 q 215 729 215 840 l 215 174 q 354 63 215 63 q 493 174 493 63 m 354 1056 l 232 969 l 196 1006 l 332 1163 l 376 1163 l 513 1006 l 476 969 l 354 1056 z "},"Õ":{"ha":708,"x_min":118,"x_max":590,"o":"m 590 729 l 590 174 q 531 30 590 81 q 355 -21 472 -21 q 178 30 238 -21 q 118 174 118 81 l 118 729 q 177 873 118 822 q 353 924 236 924 q 531 873 471 924 q 590 729 590 822 m 493 174 l 493 729 q 354 840 493 840 q 215 729 215 840 l 215 174 q 354 63 215 63 q 493 174 493 63 m 414 1054 q 354 1028 393 1054 q 280 1001 315 1001 q 219 1029 244 1001 q 190 1104 194 1057 l 247 1124 q 294 1085 261 1085 q 354 1111 315 1085 q 428 1138 393 1138 q 489 1110 464 1138 q 518 1035 514 1082 l 461 1015 q 414 1054 447 1054 z "},"Ö":{"ha":708,"x_min":118,"x_max":590,"o":"m 590 729 l 590 174 q 531 30 590 81 q 355 -21 472 -21 q 178 30 238 -21 q 118 174 118 81 l 118 729 q 177 873 118 822 q 353 924 236 924 q 531 873 471 924 q 590 729 590 822 m 493 174 l 493 729 q 354 840 493 840 q 215 729 215 840 l 215 174 q 354 63 215 63 q 493 174 493 63 m 306 993 l 208 993 l 208 1146 l 306 1146 l 306 993 m 500 993 l 403 993 l 403 1146 l 500 1146 l 500 993 z "},"×":{"ha":708,"x_min":143,"x_max":565,"o":"m 143 604 l 201 663 l 354 510 l 507 663 l 565 604 l 413 451 l 565 299 l 507 240 l 354 393 l 201 240 l 143 299 l 296 451 l 143 604 z "},"Ø":{"ha":708,"x_min":118,"x_max":590,"o":"m 118 174 l 118 729 q 177 873 118 822 q 353 924 236 924 q 428 917 390 924 l 444 986 l 507 986 l 488 899 q 590 729 590 853 l 590 174 q 531 30 590 81 q 356 -21 472 -21 q 279 -14 318 -21 l 264 -83 l 201 -83 l 221 3 q 118 174 118 50 m 493 174 l 493 729 q 465 804 493 774 l 299 68 q 356 63 321 63 q 493 174 493 63 m 215 174 q 242 99 215 125 l 410 833 q 353 840 382 840 q 215 729 215 840 l 215 174 z "},"Ù":{"ha":722,"x_min":125,"x_max":597,"o":"m 500 174 l 500 903 l 597 903 l 597 174 q 538 30 597 81 q 362 -21 479 -21 q 185 30 244 -21 q 125 174 125 81 l 125 903 l 222 903 l 222 174 q 361 63 222 63 q 500 174 500 63 m 276 1049 l 224 1101 l 299 1176 l 469 1006 l 433 969 l 276 1049 z "},"Ú":{"ha":722,"x_min":125,"x_max":597,"o":"m 500 174 l 500 903 l 597 903 l 597 174 q 538 30 597 81 q 362 -21 479 -21 q 185 30 244 -21 q 125 174 125 81 l 125 903 l 222 903 l 222 174 q 361 63 222 63 q 500 174 500 63 m 511 1101 l 458 1049 l 301 969 l 265 1006 l 436 1176 l 511 1101 z "},"Û":{"ha":722,"x_min":125,"x_max":597,"o":"m 500 174 l 500 903 l 597 903 l 597 174 q 538 30 597 81 q 362 -21 479 -21 q 185 30 244 -21 q 125 174 125 81 l 125 903 l 222 903 l 222 174 q 361 63 222 63 q 500 174 500 63 m 361 1056 l 239 969 l 203 1006 l 339 1163 l 383 1163 l 519 1006 l 483 969 l 361 1056 z "},"Ü":{"ha":722,"x_min":125,"x_max":597,"o":"m 500 174 l 500 903 l 597 903 l 597 174 q 538 30 597 81 q 362 -21 479 -21 q 185 30 244 -21 q 125 174 125 81 l 125 903 l 222 903 l 222 174 q 361 63 222 63 q 500 174 500 63 m 313 993 l 215 993 l 215 1146 l 313 1146 l 313 993 m 507 993 l 410 993 l 410 1146 l 507 1146 l 507 993 z "},"Ý":{"ha":625,"x_min":35,"x_max":590,"o":"m 361 0 l 264 0 l 264 324 l 35 903 l 138 903 l 313 438 l 488 903 l 590 903 l 361 322 l 361 0 m 463 1101 l 410 1049 l 253 969 l 217 1006 l 388 1176 l 463 1101 z "},"Þ":{"ha":639,"x_min":125,"x_max":556,"o":"m 222 0 l 125 0 l 125 903 l 222 903 l 222 764 l 335 764 q 499 713 443 764 q 556 569 556 661 l 556 333 q 500 190 556 240 q 335 139 444 139 l 222 139 l 222 0 m 458 333 l 458 569 q 426 651 458 622 q 335 681 394 681 l 222 681 l 222 222 l 335 222 q 458 333 458 222 z "},"ß":{"ha":726,"x_min":139,"x_max":608,"o":"m 594 729 l 594 604 q 496 453 594 486 q 608 299 608 422 l 608 194 q 374 0 608 0 l 306 0 l 306 83 l 374 83 q 476 111 442 83 q 511 189 511 139 l 511 299 q 478 380 511 343 q 388 417 444 417 l 344 417 l 344 486 l 374 486 q 465 522 432 486 q 497 604 497 558 l 497 735 q 465 813 497 785 q 367 840 432 840 q 269 813 301 840 q 236 735 236 785 l 236 0 l 139 0 l 139 729 q 363 924 139 924 q 537 873 479 924 q 594 729 594 822 z "},"à":{"ha":694,"x_min":111,"x_max":569,"o":"m 569 0 l 528 0 l 492 89 q 415 9 463 39 q 311 -21 368 -21 q 111 174 111 -21 l 111 313 q 311 507 111 507 l 472 507 l 472 735 q 440 813 472 785 q 346 840 408 840 q 222 735 222 840 l 222 653 l 125 653 l 125 729 q 180 873 125 822 q 346 924 235 924 q 513 873 457 924 q 569 729 569 822 l 569 0 m 472 424 l 311 424 q 231 394 253 424 q 208 313 208 365 l 208 174 q 231 92 208 121 q 311 63 253 63 q 419 108 369 63 q 472 197 469 153 l 472 424 m 263 1049 l 210 1101 l 285 1176 l 456 1006 l 419 969 l 263 1049 z "},"á":{"ha":694,"x_min":111,"x_max":569,"o":"m 569 0 l 528 0 l 492 89 q 415 9 463 39 q 311 -21 368 -21 q 111 174 111 -21 l 111 313 q 311 507 111 507 l 472 507 l 472 735 q 440 813 472 785 q 346 840 408 840 q 222 735 222 840 l 222 653 l 125 653 l 125 729 q 180 873 125 822 q 346 924 235 924 q 513 873 457 924 q 569 729 569 822 l 569 0 m 472 424 l 311 424 q 231 394 253 424 q 208 313 208 365 l 208 174 q 231 92 208 121 q 311 63 253 63 q 419 108 369 63 q 472 197 469 153 l 472 424 m 513 1101 l 460 1049 l 303 969 l 267 1006 l 438 1176 l 513 1101 z "},"â":{"ha":694,"x_min":111,"x_max":569,"o":"m 569 0 l 528 0 l 492 89 q 415 9 463 39 q 311 -21 368 -21 q 111 174 111 -21 l 111 313 q 311 507 111 507 l 472 507 l 472 735 q 440 813 472 785 q 346 840 408 840 q 222 735 222 840 l 222 653 l 125 653 l 125 729 q 180 873 125 822 q 346 924 235 924 q 513 873 457 924 q 569 729 569 822 l 569 0 m 472 424 l 311 424 q 231 394 253 424 q 208 313 208 365 l 208 174 q 231 92 208 121 q 311 63 253 63 q 419 108 369 63 q 472 197 469 153 l 472 424 m 347 1056 l 225 969 l 189 1006 l 325 1163 l 369 1163 l 506 1006 l 469 969 l 347 1056 z "},"ã":{"ha":694,"x_min":111,"x_max":569,"o":"m 569 0 l 528 0 l 492 89 q 415 9 463 39 q 311 -21 368 -21 q 111 174 111 -21 l 111 313 q 311 507 111 507 l 472 507 l 472 735 q 440 813 472 785 q 346 840 408 840 q 222 735 222 840 l 222 653 l 125 653 l 125 729 q 180 873 125 822 q 346 924 235 924 q 513 873 457 924 q 569 729 569 822 l 569 0 m 472 424 l 311 424 q 231 394 253 424 q 208 313 208 365 l 208 174 q 231 92 208 121 q 311 63 253 63 q 419 108 369 63 q 472 197 469 153 l 472 424 m 407 1054 q 347 1028 386 1054 q 273 1001 308 1001 q 213 1029 238 1001 q 183 1104 188 1057 l 240 1124 q 288 1085 254 1085 q 347 1111 308 1085 q 422 1138 386 1138 q 482 1110 457 1138 q 511 1035 507 1082 l 454 1015 q 407 1054 440 1054 z "},"ä":{"ha":694,"x_min":111,"x_max":569,"o":"m 569 0 l 528 0 l 492 89 q 415 9 463 39 q 311 -21 368 -21 q 111 174 111 -21 l 111 313 q 311 507 111 507 l 472 507 l 472 735 q 440 813 472 785 q 346 840 408 840 q 222 735 222 840 l 222 653 l 125 653 l 125 729 q 180 873 125 822 q 346 924 235 924 q 513 873 457 924 q 569 729 569 822 l 569 0 m 472 424 l 311 424 q 231 394 253 424 q 208 313 208 365 l 208 174 q 231 92 208 121 q 311 63 253 63 q 419 108 369 63 q 472 197 469 153 l 472 424 m 299 993 l 201 993 l 201 1146 l 299 1146 l 299 993 m 493 993 l 396 993 l 396 1146 l 493 1146 l 493 993 z "},"å":{"ha":694,"x_min":111,"x_max":569,"o":"m 569 0 l 528 0 l 492 89 q 415 9 463 39 q 311 -21 368 -21 q 111 174 111 -21 l 111 313 q 311 507 111 507 l 472 507 l 472 735 q 440 813 472 785 q 346 840 408 840 q 222 735 222 840 l 222 653 l 125 653 l 125 729 q 180 873 125 822 q 346 924 235 924 q 513 873 457 924 q 569 729 569 822 l 569 0 m 472 424 l 311 424 q 231 394 253 424 q 208 313 208 365 l 208 174 q 231 92 208 121 q 311 63 253 63 q 419 108 369 63 q 472 197 469 153 l 472 424 m 465 1083 l 465 1056 q 347 951 465 951 q 229 1056 229 951 l 229 1083 q 347 1188 229 1188 q 465 1083 465 1188 m 299 1083 l 299 1056 q 347 1013 299 1013 q 396 1056 396 1013 l 396 1083 q 347 1126 396 1126 q 299 1083 299 1126 z "},"æ":{"ha":1049,"x_min":111,"x_max":931,"o":"m 833 174 l 833 250 l 931 250 l 931 174 q 874 30 931 81 q 703 -21 817 -21 q 489 85 538 -21 q 311 -21 424 -21 q 111 174 111 -21 l 111 313 q 311 507 111 507 l 472 507 l 472 738 q 440 813 472 785 q 346 840 407 840 q 253 812 285 840 q 222 735 222 783 l 222 653 l 125 653 l 125 729 q 181 873 125 822 q 349 924 236 924 q 521 865 463 924 q 697 924 579 924 q 872 873 814 924 q 931 729 931 822 l 931 424 l 569 424 l 569 174 q 701 63 569 63 q 833 174 833 63 m 472 201 l 472 424 l 311 424 q 231 394 253 424 q 208 313 208 365 l 208 174 q 231 92 208 121 q 312 63 253 63 q 422 110 371 63 q 472 201 472 157 m 569 738 l 569 507 l 833 507 l 833 729 q 700 840 833 840 q 603 813 638 840 q 569 738 569 786 z "},"ç":{"ha":681,"x_min":118,"x_max":576,"o":"m 479 174 l 479 250 l 576 250 l 576 174 q 367 -19 576 -11 l 354 -86 l 361 -86 q 448 -116 418 -86 q 478 -196 478 -146 l 478 -228 q 353 -333 478 -333 q 229 -228 229 -333 l 229 -217 l 296 -217 l 296 -231 q 353 -274 296 -274 q 411 -231 411 -274 l 411 -196 q 397 -161 411 -176 q 361 -146 383 -146 l 278 -146 l 303 -18 q 165 41 211 -8 q 118 174 118 90 l 118 729 q 175 873 118 822 q 346 924 232 924 q 518 873 460 924 q 576 729 576 822 l 576 597 l 479 597 l 479 729 q 347 840 479 840 q 215 729 215 840 l 215 174 q 347 63 215 63 q 479 174 479 63 z "},"è":{"ha":694,"x_min":118,"x_max":576,"o":"m 479 174 l 479 250 l 576 250 l 576 174 q 519 30 576 81 q 349 -21 463 -21 q 176 30 235 -21 q 118 174 118 81 l 118 729 q 175 873 118 822 q 346 924 232 924 q 518 873 460 924 q 576 729 576 822 l 576 424 l 215 424 l 215 174 q 347 63 215 63 q 479 174 479 63 m 215 729 l 215 507 l 479 507 l 479 729 q 347 840 479 840 q 215 729 215 840 m 263 1049 l 210 1101 l 285 1176 l 456 1006 l 419 969 l 263 1049 z "},"é":{"ha":694,"x_min":118,"x_max":576,"o":"m 479 174 l 479 250 l 576 250 l 576 174 q 519 30 576 81 q 349 -21 463 -21 q 176 30 235 -21 q 118 174 118 81 l 118 729 q 175 873 118 822 q 346 924 232 924 q 518 873 460 924 q 576 729 576 822 l 576 424 l 215 424 l 215 174 q 347 63 215 63 q 479 174 479 63 m 215 729 l 215 507 l 479 507 l 479 729 q 347 840 479 840 q 215 729 215 840 m 513 1101 l 460 1049 l 303 969 l 267 1006 l 438 1176 l 513 1101 z "},"ê":{"ha":694,"x_min":118,"x_max":576,"o":"m 479 174 l 479 250 l 576 250 l 576 174 q 519 30 576 81 q 349 -21 463 -21 q 176 30 235 -21 q 118 174 118 81 l 118 729 q 175 873 118 822 q 346 924 232 924 q 518 873 460 924 q 576 729 576 822 l 576 424 l 215 424 l 215 174 q 347 63 215 63 q 479 174 479 63 m 215 729 l 215 507 l 479 507 l 479 729 q 347 840 479 840 q 215 729 215 840 m 347 1056 l 225 969 l 189 1006 l 325 1163 l 369 1163 l 506 1006 l 469 969 l 347 1056 z "},"ë":{"ha":694,"x_min":118,"x_max":576,"o":"m 479 174 l 479 250 l 576 250 l 576 174 q 519 30 576 81 q 349 -21 463 -21 q 176 30 235 -21 q 118 174 118 81 l 118 729 q 175 873 118 822 q 346 924 232 924 q 518 873 460 924 q 576 729 576 822 l 576 424 l 215 424 l 215 174 q 347 63 215 63 q 479 174 479 63 m 215 729 l 215 507 l 479 507 l 479 729 q 347 840 479 840 q 215 729 215 840 m 299 993 l 201 993 l 201 1146 l 299 1146 l 299 993 m 493 993 l 396 993 l 396 1146 l 493 1146 l 493 993 z "},"ì":{"ha":375,"x_min":65,"x_max":311,"o":"m 236 0 l 139 0 l 139 903 l 236 903 l 236 0 m 118 1049 l 65 1101 l 140 1176 l 311 1006 l 275 969 l 118 1049 z "},"í":{"ha":375,"x_min":79,"x_max":325,"o":"m 236 0 l 139 0 l 139 903 l 236 903 l 236 0 m 325 1101 l 272 1049 l 115 969 l 79 1006 l 250 1176 l 325 1101 z "},"î":{"ha":375,"x_min":29,"x_max":346,"o":"m 236 0 l 139 0 l 139 903 l 236 903 l 236 0 m 188 1056 l 65 969 l 29 1006 l 165 1163 l 210 1163 l 346 1006 l 310 969 l 188 1056 z "},"ï":{"ha":375,"x_min":42,"x_max":333,"o":"m 236 0 l 139 0 l 139 903 l 236 903 l 236 0 m 139 993 l 42 993 l 42 1146 l 139 1146 l 139 993 m 333 993 l 236 993 l 236 1146 l 333 1146 l 333 993 z "},"ð":{"ha":701,"x_min":43,"x_max":583,"o":"m 43 424 l 43 493 l 139 493 l 139 903 l 363 903 q 527 851 471 903 q 583 708 583 800 l 583 194 q 528 51 583 101 q 363 0 472 0 l 139 0 l 139 424 l 43 424 m 486 194 l 486 708 q 453 786 486 753 q 363 819 421 819 l 236 819 l 236 493 l 404 493 l 404 424 l 236 424 l 236 83 l 363 83 q 453 116 421 83 q 486 194 486 149 z "},"ñ":{"ha":729,"x_min":139,"x_max":604,"o":"m 236 0 l 139 0 l 139 903 l 181 903 l 215 813 q 400 924 282 924 q 604 729 604 924 l 604 0 l 507 0 l 507 729 q 484 811 507 782 q 400 840 461 840 q 288 793 339 840 q 236 701 236 746 l 236 0 m 444 1054 q 385 1028 424 1054 q 310 1001 346 1001 q 250 1029 275 1001 q 221 1104 225 1057 l 278 1124 q 325 1085 292 1085 q 385 1111 346 1085 q 459 1138 424 1138 q 519 1110 494 1138 q 549 1035 544 1082 l 492 1015 q 444 1054 478 1054 z "},"ò":{"ha":708,"x_min":118,"x_max":590,"o":"m 590 729 l 590 174 q 531 30 590 81 q 355 -21 472 -21 q 178 30 238 -21 q 118 174 118 81 l 118 729 q 177 873 118 822 q 353 924 236 924 q 531 873 471 924 q 590 729 590 822 m 493 174 l 493 729 q 354 840 493 840 q 215 729 215 840 l 215 174 q 354 63 215 63 q 493 174 493 63 m 269 1049 l 217 1101 l 292 1176 l 463 1006 l 426 969 l 269 1049 z "},"ó":{"ha":708,"x_min":118,"x_max":590,"o":"m 590 729 l 590 174 q 531 30 590 81 q 355 -21 472 -21 q 178 30 238 -21 q 118 174 118 81 l 118 729 q 177 873 118 822 q 353 924 236 924 q 531 873 471 924 q 590 729 590 822 m 493 174 l 493 729 q 354 840 493 840 q 215 729 215 840 l 215 174 q 354 63 215 63 q 493 174 493 63 m 519 1101 l 467 1049 l 310 969 l 274 1006 l 444 1176 l 519 1101 z "},"ô":{"ha":708,"x_min":118,"x_max":590,"o":"m 590 729 l 590 174 q 531 30 590 81 q 355 -21 472 -21 q 178 30 238 -21 q 118 174 118 81 l 118 729 q 177 873 118 822 q 353 924 236 924 q 531 873 471 924 q 590 729 590 822 m 493 174 l 493 729 q 354 840 493 840 q 215 729 215 840 l 215 174 q 354 63 215 63 q 493 174 493 63 m 354 1056 l 232 969 l 196 1006 l 332 1163 l 376 1163 l 513 1006 l 476 969 l 354 1056 z "},"õ":{"ha":708,"x_min":118,"x_max":590,"o":"m 590 729 l 590 174 q 531 30 590 81 q 355 -21 472 -21 q 178 30 238 -21 q 118 174 118 81 l 118 729 q 177 873 118 822 q 353 924 236 924 q 531 873 471 924 q 590 729 590 822 m 493 174 l 493 729 q 354 840 493 840 q 215 729 215 840 l 215 174 q 354 63 215 63 q 493 174 493 63 m 414 1054 q 354 1028 393 1054 q 280 1001 315 1001 q 219 1029 244 1001 q 190 1104 194 1057 l 247 1124 q 294 1085 261 1085 q 354 1111 315 1085 q 428 1138 393 1138 q 489 1110 464 1138 q 518 1035 514 1082 l 461 1015 q 414 1054 447 1054 z "},"ö":{"ha":708,"x_min":118,"x_max":590,"o":"m 590 729 l 590 174 q 531 30 590 81 q 355 -21 472 -21 q 178 30 238 -21 q 118 174 118 81 l 118 729 q 177 873 118 822 q 353 924 236 924 q 531 873 471 924 q 590 729 590 822 m 493 174 l 493 729 q 354 840 493 840 q 215 729 215 840 l 215 174 q 354 63 215 63 q 493 174 493 63 m 306 993 l 208 993 l 208 1146 l 306 1146 l 306 993 m 500 993 l 403 993 l 403 1146 l 500 1146 l 500 993 z "},"÷":{"ha":708,"x_min":132,"x_max":576,"o":"m 407 604 l 294 604 l 294 742 l 407 742 l 407 604 m 576 493 l 576 410 l 132 410 l 132 493 l 576 493 m 407 161 l 294 161 l 294 299 l 407 299 l 407 161 z "},"ø":{"ha":708,"x_min":118,"x_max":590,"o":"m 118 174 l 118 729 q 177 873 118 822 q 353 924 236 924 q 428 917 390 924 l 444 986 l 507 986 l 488 899 q 590 729 590 853 l 590 174 q 531 30 590 81 q 356 -21 472 -21 q 279 -14 318 -21 l 264 -83 l 201 -83 l 221 3 q 118 174 118 50 m 215 174 q 242 99 215 125 l 410 833 q 353 840 382 840 q 215 729 215 840 l 215 174 m 493 174 l 493 729 q 465 804 493 774 l 299 68 q 356 63 321 63 q 493 174 493 63 z "},"ù":{"ha":729,"x_min":125,"x_max":590,"o":"m 125 174 l 125 903 l 222 903 l 222 174 q 245 92 222 121 q 329 63 268 63 q 442 110 390 63 q 493 201 493 157 l 493 903 l 590 903 l 590 0 l 549 0 l 513 89 q 434 9 482 39 q 329 -21 386 -21 q 125 174 125 -21 m 281 1049 l 228 1101 l 303 1176 l 474 1006 l 438 969 l 281 1049 z "},"ú":{"ha":729,"x_min":125,"x_max":590,"o":"m 125 174 l 125 903 l 222 903 l 222 174 q 245 92 222 121 q 329 63 268 63 q 442 110 390 63 q 493 201 493 157 l 493 903 l 590 903 l 590 0 l 549 0 l 513 89 q 434 9 482 39 q 329 -21 386 -21 q 125 174 125 -21 m 529 1101 l 476 1049 l 319 969 l 283 1006 l 454 1176 l 529 1101 z "},"û":{"ha":729,"x_min":125,"x_max":590,"o":"m 125 174 l 125 903 l 222 903 l 222 174 q 245 92 222 121 q 329 63 268 63 q 442 110 390 63 q 493 201 493 157 l 493 903 l 590 903 l 590 0 l 549 0 l 513 89 q 434 9 482 39 q 329 -21 386 -21 q 125 174 125 -21 m 364 1056 l 242 969 l 206 1006 l 342 1163 l 386 1163 l 522 1006 l 486 969 l 364 1056 z "},"ü":{"ha":729,"x_min":125,"x_max":590,"o":"m 125 174 l 125 903 l 222 903 l 222 174 q 245 92 222 121 q 329 63 268 63 q 442 110 390 63 q 493 201 493 157 l 493 903 l 590 903 l 590 0 l 549 0 l 513 89 q 434 9 482 39 q 329 -21 386 -21 q 125 174 125 -21 m 315 993 l 218 993 l 218 1146 l 315 1146 l 315 993 m 510 993 l 413 993 l 413 1146 l 510 1146 l 510 993 z "},"ý":{"ha":653,"x_min":90,"x_max":563,"o":"m 376 0 l 279 0 l 279 256 q 90 447 90 276 l 90 903 l 188 903 l 188 447 q 326 336 188 336 q 465 447 465 336 l 465 903 l 563 903 l 563 447 q 376 256 563 276 l 376 0 m 478 1101 l 425 1049 l 268 969 l 232 1006 l 403 1176 l 478 1101 z "},"þ":{"ha":639,"x_min":125,"x_max":556,"o":"m 222 0 l 125 0 l 125 903 l 222 903 l 222 764 l 335 764 q 499 713 443 764 q 556 569 556 661 l 556 333 q 500 190 556 240 q 335 139 444 139 l 222 139 l 222 0 m 458 333 l 458 569 q 426 651 458 622 q 335 681 394 681 l 222 681 l 222 222 l 335 222 q 458 333 458 222 z "},"ÿ":{"ha":653,"x_min":90,"x_max":563,"o":"m 376 0 l 279 0 l 279 256 q 90 447 90 276 l 90 903 l 188 903 l 188 447 q 326 336 188 336 q 465 447 465 336 l 465 903 l 563 903 l 563 447 q 376 256 563 276 l 376 0 m 279 993 l 182 993 l 182 1146 l 279 1146 l 279 993 m 474 993 l 376 993 l 376 1146 l 474 1146 l 474 993 z "},"Ā":{"ha":665,"x_min":56,"x_max":610,"o":"m 260 903 l 406 903 l 610 0 l 513 0 l 465 208 l 200 208 l 153 0 l 56 0 l 260 903 m 332 794 l 218 292 l 446 292 l 332 794 m 182 1028 l 182 1111 l 482 1111 l 482 1028 l 182 1028 z "},"ā":{"ha":694,"x_min":111,"x_max":569,"o":"m 569 0 l 528 0 l 492 89 q 415 9 463 39 q 311 -21 368 -21 q 111 174 111 -21 l 111 313 q 311 507 111 507 l 472 507 l 472 735 q 440 813 472 785 q 346 840 408 840 q 222 735 222 840 l 222 653 l 125 653 l 125 729 q 180 873 125 822 q 346 924 235 924 q 513 873 457 924 q 569 729 569 822 l 569 0 m 472 424 l 311 424 q 231 394 253 424 q 208 313 208 365 l 208 174 q 231 92 208 121 q 311 63 253 63 q 419 108 369 63 q 472 197 469 153 l 472 424 m 197 1028 l 197 1111 l 497 1111 l 497 1028 l 197 1028 z "},"Ă":{"ha":665,"x_min":56,"x_max":610,"o":"m 260 903 l 406 903 l 610 0 l 513 0 l 465 208 l 200 208 l 153 0 l 56 0 l 260 903 m 332 794 l 218 292 l 446 292 l 332 794 m 272 1133 l 272 1106 q 332 1063 272 1063 q 392 1106 392 1063 l 392 1133 l 468 1133 l 468 1097 q 332 993 468 993 q 196 1097 196 993 l 196 1133 l 272 1133 z "},"ă":{"ha":694,"x_min":111,"x_max":569,"o":"m 569 0 l 528 0 l 492 89 q 415 9 463 39 q 311 -21 368 -21 q 111 174 111 -21 l 111 313 q 311 507 111 507 l 472 507 l 472 735 q 440 813 472 785 q 346 840 408 840 q 222 735 222 840 l 222 653 l 125 653 l 125 729 q 180 873 125 822 q 346 924 235 924 q 513 873 457 924 q 569 729 569 822 l 569 0 m 472 424 l 311 424 q 231 394 253 424 q 208 313 208 365 l 208 174 q 231 92 208 121 q 311 63 253 63 q 419 108 369 63 q 472 197 469 153 l 472 424 m 288 1133 l 288 1106 q 347 1063 288 1063 q 407 1106 407 1063 l 407 1133 l 483 1133 l 483 1097 q 347 993 483 993 q 211 1097 211 993 l 211 1133 l 288 1133 z "},"Ą":{"ha":665,"x_min":56,"x_max":636,"o":"m 454 -172 l 454 -231 q 512 -274 454 -274 q 569 -231 569 -274 l 569 -189 l 636 -189 l 636 -228 q 512 -333 636 -333 q 388 -228 388 -333 l 388 -172 q 444 -57 388 -110 l 513 0 l 465 208 l 200 208 l 153 0 l 56 0 l 260 903 l 406 903 l 610 0 l 522 -71 q 454 -172 454 -126 m 332 794 l 218 292 l 446 292 l 332 794 z "},"ą":{"ha":694,"x_min":111,"x_max":596,"o":"m 414 -172 l 414 -231 q 472 -274 414 -274 q 529 -231 529 -274 l 529 -189 l 596 -189 l 596 -228 q 472 -333 596 -333 q 347 -228 347 -333 l 347 -172 q 404 -57 347 -104 l 514 35 l 492 89 q 415 9 463 39 q 311 -21 368 -21 q 111 174 111 -21 l 111 313 q 311 507 111 507 l 472 507 l 472 735 q 440 813 472 785 q 346 840 408 840 q 222 735 222 840 l 222 653 l 125 653 l 125 729 q 180 873 125 822 q 346 924 235 924 q 513 873 457 924 q 569 729 569 822 l 569 0 l 482 -71 q 414 -172 414 -126 m 472 424 l 311 424 q 231 394 253 424 q 208 313 208 365 l 208 174 q 231 92 208 121 q 311 63 253 63 q 419 108 369 63 q 472 197 469 153 l 472 424 z "},"Ć":{"ha":681,"x_min":118,"x_max":576,"o":"m 479 174 l 479 250 l 576 250 l 576 174 q 519 30 576 81 q 349 -21 463 -21 q 176 30 235 -21 q 118 174 118 81 l 118 729 q 175 873 118 822 q 346 924 232 924 q 518 873 460 924 q 576 729 576 822 l 576 597 l 479 597 l 479 729 q 347 840 479 840 q 215 729 215 840 l 215 174 q 347 63 215 63 q 479 174 479 63 m 463 1101 l 410 1049 l 253 969 l 217 1006 l 388 1176 l 463 1101 z "},"ć":{"ha":681,"x_min":118,"x_max":576,"o":"m 479 174 l 479 250 l 576 250 l 576 174 q 519 30 576 81 q 349 -21 463 -21 q 176 30 235 -21 q 118 174 118 81 l 118 729 q 175 873 118 822 q 346 924 232 924 q 518 873 460 924 q 576 729 576 822 l 576 597 l 479 597 l 479 729 q 347 840 479 840 q 215 729 215 840 l 215 174 q 347 63 215 63 q 479 174 479 63 m 463 1101 l 410 1049 l 253 969 l 217 1006 l 388 1176 l 463 1101 z "},"Ĉ":{"ha":681,"x_min":118,"x_max":576,"o":"m 479 174 l 479 250 l 576 250 l 576 174 q 519 30 576 81 q 349 -21 463 -21 q 176 30 235 -21 q 118 174 118 81 l 118 729 q 175 873 118 822 q 346 924 232 924 q 518 873 460 924 q 576 729 576 822 l 576 597 l 479 597 l 479 729 q 347 840 479 840 q 215 729 215 840 l 215 174 q 347 63 215 63 q 479 174 479 63 m 340 1056 l 218 969 l 182 1006 l 318 1163 l 363 1163 l 499 1006 l 463 969 l 340 1056 z "},"ĉ":{"ha":681,"x_min":118,"x_max":576,"o":"m 479 174 l 479 250 l 576 250 l 576 174 q 519 30 576 81 q 349 -21 463 -21 q 176 30 235 -21 q 118 174 118 81 l 118 729 q 175 873 118 822 q 346 924 232 924 q 518 873 460 924 q 576 729 576 822 l 576 597 l 479 597 l 479 729 q 347 840 479 840 q 215 729 215 840 l 215 174 q 347 63 215 63 q 479 174 479 63 m 340 1056 l 218 969 l 182 1006 l 318 1163 l 363 1163 l 499 1006 l 463 969 l 340 1056 z "},"Ċ":{"ha":681,"x_min":118,"x_max":576,"o":"m 479 174 l 479 250 l 576 250 l 576 174 q 519 30 576 81 q 349 -21 463 -21 q 176 30 235 -21 q 118 174 118 81 l 118 729 q 175 873 118 822 q 346 924 232 924 q 518 873 460 924 q 576 729 576 822 l 576 597 l 479 597 l 479 729 q 347 840 479 840 q 215 729 215 840 l 215 174 q 347 63 215 63 q 479 174 479 63 m 396 993 l 285 993 l 285 1146 l 396 1146 l 396 993 z "},"ċ":{"ha":681,"x_min":118,"x_max":576,"o":"m 479 174 l 479 250 l 576 250 l 576 174 q 519 30 576 81 q 349 -21 463 -21 q 176 30 235 -21 q 118 174 118 81 l 118 729 q 175 873 118 822 q 346 924 232 924 q 518 873 460 924 q 576 729 576 822 l 576 597 l 479 597 l 479 729 q 347 840 479 840 q 215 729 215 840 l 215 174 q 347 63 215 63 q 479 174 479 63 m 396 993 l 285 993 l 285 1146 l 396 1146 l 396 993 z "},"Č":{"ha":681,"x_min":118,"x_max":576,"o":"m 479 174 l 479 250 l 576 250 l 576 174 q 519 30 576 81 q 349 -21 463 -21 q 176 30 235 -21 q 118 174 118 81 l 118 729 q 175 873 118 822 q 346 924 232 924 q 518 873 460 924 q 576 729 576 822 l 576 597 l 479 597 l 479 729 q 347 840 479 840 q 215 729 215 840 l 215 174 q 347 63 215 63 q 479 174 479 63 m 340 1081 l 463 1167 l 499 1131 l 363 974 l 318 974 l 182 1131 l 218 1167 l 340 1081 z "},"č":{"ha":681,"x_min":118,"x_max":576,"o":"m 479 174 l 479 250 l 576 250 l 576 174 q 519 30 576 81 q 349 -21 463 -21 q 176 30 235 -21 q 118 174 118 81 l 118 729 q 175 873 118 822 q 346 924 232 924 q 518 873 460 924 q 576 729 576 822 l 576 597 l 479 597 l 479 729 q 347 840 479 840 q 215 729 215 840 l 215 174 q 347 63 215 63 q 479 174 479 63 m 340 1081 l 463 1167 l 499 1131 l 363 974 l 318 974 l 182 1131 l 218 1167 l 340 1081 z "},"Ď":{"ha":701,"x_min":139,"x_max":583,"o":"m 363 0 l 139 0 l 139 903 l 363 903 q 527 851 471 903 q 583 708 583 800 l 583 194 q 528 51 583 101 q 363 0 472 0 m 486 194 l 486 708 q 453 786 486 753 q 363 819 421 819 l 236 819 l 236 83 l 363 83 q 453 116 421 83 q 486 194 486 149 m 350 1081 l 472 1167 l 508 1131 l 372 974 l 328 974 l 192 1131 l 228 1167 l 350 1081 z "},"ď":{"ha":701,"x_min":139,"x_max":757,"o":"m 363 0 l 139 0 l 139 903 l 363 903 q 527 851 471 903 q 583 708 583 800 l 583 194 q 528 51 583 101 q 363 0 472 0 m 486 194 l 486 708 q 454 790 486 761 q 363 819 422 819 l 236 819 l 236 83 l 363 83 q 486 194 486 83 m 646 993 l 757 993 l 757 875 l 696 714 l 651 722 l 679 854 l 646 867 l 646 993 z "},"Đ":{"ha":694,"x_min":43,"x_max":583,"o":"m 43 424 l 43 493 l 139 493 l 139 903 l 363 903 q 527 851 471 903 q 583 708 583 800 l 583 194 q 528 51 583 101 q 363 0 472 0 l 139 0 l 139 424 l 43 424 m 486 194 l 486 708 q 453 786 486 753 q 363 819 421 819 l 236 819 l 236 493 l 404 493 l 404 424 l 236 424 l 236 83 l 363 83 q 453 116 421 83 q 486 194 486 149 z "},"đ":{"ha":694,"x_min":43,"x_max":583,"o":"m 43 424 l 43 493 l 139 493 l 139 903 l 363 903 q 527 851 471 903 q 583 708 583 800 l 583 194 q 528 51 583 101 q 363 0 472 0 l 139 0 l 139 424 l 43 424 m 486 194 l 486 708 q 453 786 486 753 q 363 819 421 819 l 236 819 l 236 493 l 404 493 l 404 424 l 236 424 l 236 83 l 363 83 q 453 116 421 83 q 486 194 486 149 z "},"Ē":{"ha":618,"x_min":139,"x_max":549,"o":"m 549 0 l 139 0 l 139 903 l 535 903 l 535 819 l 236 819 l 236 500 l 479 500 l 479 417 l 236 417 l 236 83 l 549 83 l 549 0 m 200 1028 l 200 1111 l 500 1111 l 500 1028 l 200 1028 z "},"ē":{"ha":694,"x_min":118,"x_max":576,"o":"m 479 174 l 479 250 l 576 250 l 576 174 q 519 30 576 81 q 349 -21 463 -21 q 176 30 235 -21 q 118 174 118 81 l 118 729 q 175 873 118 822 q 346 924 232 924 q 518 873 460 924 q 576 729 576 822 l 576 424 l 215 424 l 215 174 q 347 63 215 63 q 479 174 479 63 m 215 729 l 215 507 l 479 507 l 479 729 q 347 840 479 840 q 215 729 215 840 m 197 1028 l 197 1111 l 497 1111 l 497 1028 l 197 1028 z "},"Ĕ":{"ha":618,"x_min":139,"x_max":549,"o":"m 549 0 l 139 0 l 139 903 l 535 903 l 535 819 l 236 819 l 236 500 l 479 500 l 479 417 l 236 417 l 236 83 l 549 83 l 549 0 m 290 1133 l 290 1106 q 350 1063 290 1063 q 410 1106 410 1063 l 410 1133 l 486 1133 l 486 1097 q 350 993 486 993 q 214 1097 214 993 l 214 1133 l 290 1133 z "},"ĕ":{"ha":694,"x_min":118,"x_max":576,"o":"m 479 174 l 479 250 l 576 250 l 576 174 q 519 30 576 81 q 349 -21 463 -21 q 176 30 235 -21 q 118 174 118 81 l 118 729 q 175 873 118 822 q 346 924 232 924 q 518 873 460 924 q 576 729 576 822 l 576 424 l 215 424 l 215 174 q 347 63 215 63 q 479 174 479 63 m 215 729 l 215 507 l 479 507 l 479 729 q 347 840 479 840 q 215 729 215 840 m 288 1133 l 288 1106 q 347 1063 288 1063 q 407 1106 407 1063 l 407 1133 l 483 1133 l 483 1097 q 347 993 483 993 q 211 1097 211 993 l 211 1133 l 288 1133 z "},"Ė":{"ha":618,"x_min":139,"x_max":549,"o":"m 549 0 l 139 0 l 139 903 l 535 903 l 535 819 l 236 819 l 236 500 l 479 500 l 479 417 l 236 417 l 236 83 l 549 83 l 549 0 m 406 993 l 294 993 l 294 1146 l 406 1146 l 406 993 z "},"ė":{"ha":694,"x_min":118,"x_max":576,"o":"m 479 174 l 479 250 l 576 250 l 576 174 q 519 30 576 81 q 349 -21 463 -21 q 176 30 235 -21 q 118 174 118 81 l 118 729 q 175 873 118 822 q 346 924 232 924 q 518 873 460 924 q 576 729 576 822 l 576 424 l 215 424 l 215 174 q 347 63 215 63 q 479 174 479 63 m 215 729 l 215 507 l 479 507 l 479 729 q 347 840 479 840 q 215 729 215 840 m 403 993 l 292 993 l 292 1146 l 403 1146 l 403 993 z "},"Ę":{"ha":618,"x_min":139,"x_max":575,"o":"m 139 0 l 139 903 l 535 903 l 535 819 l 236 819 l 236 500 l 479 500 l 479 417 l 236 417 l 236 83 l 549 83 l 549 0 l 461 -71 q 393 -172 393 -126 l 393 -231 q 451 -274 393 -274 q 508 -231 508 -274 l 508 -189 l 575 -189 l 575 -228 q 451 -333 575 -333 q 326 -228 326 -333 l 326 -172 q 383 -57 326 -110 l 451 0 l 139 0 z "},"ę":{"ha":694,"x_min":118,"x_max":576,"o":"m 479 174 l 479 250 l 576 250 l 576 174 q 468 0 576 43 l 382 -71 q 314 -172 314 -126 l 314 -231 q 372 -274 314 -274 q 429 -231 429 -274 l 429 -189 l 496 -189 l 496 -228 q 372 -333 496 -333 q 247 -228 247 -333 l 247 -172 q 304 -57 247 -110 l 347 -21 q 176 31 233 -19 q 118 174 118 81 l 118 729 q 175 873 118 822 q 346 924 232 924 q 518 873 460 924 q 576 729 576 822 l 576 424 l 215 424 l 215 174 q 347 63 215 63 q 479 174 479 63 m 215 729 l 215 507 l 479 507 l 479 729 q 347 840 479 840 q 215 729 215 840 z "},"Ě":{"ha":618,"x_min":139,"x_max":549,"o":"m 549 0 l 139 0 l 139 903 l 535 903 l 535 819 l 236 819 l 236 500 l 479 500 l 479 417 l 236 417 l 236 83 l 549 83 l 549 0 m 350 1081 l 472 1167 l 508 1131 l 372 974 l 328 974 l 192 1131 l 228 1167 l 350 1081 z "},"ě":{"ha":694,"x_min":118,"x_max":576,"o":"m 479 174 l 479 250 l 576 250 l 576 174 q 519 30 576 81 q 349 -21 463 -21 q 176 30 235 -21 q 118 174 118 81 l 118 729 q 175 873 118 822 q 346 924 232 924 q 518 873 460 924 q 576 729 576 822 l 576 424 l 215 424 l 215 174 q 347 63 215 63 q 479 174 479 63 m 215 729 l 215 507 l 479 507 l 479 729 q 347 840 479 840 q 215 729 215 840 m 347 1081 l 469 1167 l 506 1131 l 369 974 l 325 974 l 189 1131 l 225 1167 l 347 1081 z "},"Ĝ":{"ha":694,"x_min":118,"x_max":576,"o":"m 324 375 l 324 458 l 576 458 l 576 0 l 535 0 l 499 89 q 422 9 469 39 q 319 -21 375 -21 q 118 174 118 -21 l 118 729 q 175 873 118 822 q 346 924 232 924 q 518 873 460 924 q 576 729 576 822 l 576 653 l 479 653 l 479 729 q 347 840 479 840 q 215 729 215 840 l 215 174 q 238 92 215 121 q 319 63 260 63 q 428 110 378 63 q 479 201 479 157 l 479 375 l 324 375 m 347 1056 l 225 969 l 189 1006 l 325 1163 l 369 1163 l 506 1006 l 469 969 l 347 1056 z "},"ĝ":{"ha":694,"x_min":118,"x_max":576,"o":"m 324 375 l 324 458 l 576 458 l 576 174 q 519 30 576 81 q 349 -21 463 -21 q 176 30 235 -21 q 118 174 118 81 l 118 729 q 175 873 118 822 q 346 924 232 924 q 518 873 460 924 q 576 729 576 822 l 576 653 l 479 653 l 479 729 q 347 840 479 840 q 215 729 215 840 l 215 174 q 347 63 215 63 q 479 174 479 63 l 479 375 l 324 375 m 347 1056 l 225 969 l 189 1006 l 325 1163 l 369 1163 l 506 1006 l 469 969 l 347 1056 z "},"Ğ":{"ha":694,"x_min":118,"x_max":576,"o":"m 324 375 l 324 458 l 576 458 l 576 0 l 535 0 l 499 89 q 422 9 469 39 q 319 -21 375 -21 q 118 174 118 -21 l 118 729 q 175 873 118 822 q 346 924 232 924 q 518 873 460 924 q 576 729 576 822 l 576 653 l 479 653 l 479 729 q 347 840 479 840 q 215 729 215 840 l 215 174 q 238 92 215 121 q 319 63 260 63 q 428 110 378 63 q 479 201 479 157 l 479 375 l 324 375 m 288 1133 l 288 1106 q 347 1063 288 1063 q 407 1106 407 1063 l 407 1133 l 483 1133 l 483 1097 q 347 993 483 993 q 211 1097 211 993 l 211 1133 l 288 1133 z "},"ğ":{"ha":694,"x_min":118,"x_max":576,"o":"m 324 375 l 324 458 l 576 458 l 576 174 q 519 30 576 81 q 349 -21 463 -21 q 176 30 235 -21 q 118 174 118 81 l 118 729 q 175 873 118 822 q 346 924 232 924 q 518 873 460 924 q 576 729 576 822 l 576 653 l 479 653 l 479 729 q 347 840 479 840 q 215 729 215 840 l 215 174 q 347 63 215 63 q 479 174 479 63 l 479 375 l 324 375 m 288 1133 l 288 1106 q 347 1063 288 1063 q 407 1106 407 1063 l 407 1133 l 483 1133 l 483 1097 q 347 993 483 993 q 211 1097 211 993 l 211 1133 l 288 1133 z "},"Ġ":{"ha":694,"x_min":118,"x_max":576,"o":"m 324 375 l 324 458 l 576 458 l 576 0 l 535 0 l 499 89 q 422 9 469 39 q 319 -21 375 -21 q 118 174 118 -21 l 118 729 q 175 873 118 822 q 346 924 232 924 q 518 873 460 924 q 576 729 576 822 l 576 653 l 479 653 l 479 729 q 347 840 479 840 q 215 729 215 840 l 215 174 q 238 92 215 121 q 319 63 260 63 q 428 110 378 63 q 479 201 479 157 l 479 375 l 324 375 m 403 993 l 292 993 l 292 1146 l 403 1146 l 403 993 z "},"ġ":{"ha":694,"x_min":118,"x_max":576,"o":"m 324 375 l 324 458 l 576 458 l 576 174 q 519 30 576 81 q 349 -21 463 -21 q 176 30 235 -21 q 118 174 118 81 l 118 729 q 175 873 118 822 q 346 924 232 924 q 518 873 460 924 q 576 729 576 822 l 576 653 l 479 653 l 479 729 q 347 840 479 840 q 215 729 215 840 l 215 174 q 347 63 215 63 q 479 174 479 63 l 479 375 l 324 375 m 403 993 l 292 993 l 292 1146 l 403 1146 l 403 993 z "},"Ģ":{"ha":694,"x_min":118,"x_max":576,"o":"m 324 375 l 324 458 l 576 458 l 576 0 l 535 0 l 499 89 q 422 9 469 39 q 319 -21 375 -21 q 118 174 118 -21 l 118 729 q 175 873 118 822 q 346 924 232 924 q 518 873 460 924 q 576 729 576 822 l 576 653 l 479 653 l 479 729 q 347 840 479 840 q 215 729 215 840 l 215 174 q 238 92 215 121 q 319 63 260 63 q 428 110 378 63 q 479 201 479 157 l 479 375 l 324 375 m 306 -76 l 417 -76 l 417 -194 l 356 -356 l 311 -347 l 339 -215 l 306 -203 l 306 -76 z "},"ģ":{"ha":694,"x_min":118,"x_max":576,"o":"m 324 375 l 324 458 l 576 458 l 576 174 q 519 30 576 81 q 349 -21 463 -21 q 176 30 235 -21 q 118 174 118 81 l 118 729 q 175 873 118 822 q 346 924 232 924 q 518 873 460 924 q 576 729 576 822 l 576 653 l 479 653 l 479 729 q 347 840 479 840 q 215 729 215 840 l 215 174 q 347 63 215 63 q 479 174 479 63 l 479 375 l 324 375 m 417 993 l 306 993 l 306 1111 l 367 1272 l 411 1264 l 383 1132 l 417 1119 l 417 993 z "},"Ĥ":{"ha":746,"x_min":139,"x_max":607,"o":"m 236 0 l 139 0 l 139 903 l 236 903 l 236 500 l 510 500 l 510 903 l 607 903 l 607 0 l 510 0 l 510 417 l 236 417 l 236 0 m 372 1056 l 250 969 l 214 1006 l 350 1163 l 394 1163 l 531 1006 l 494 969 l 372 1056 z "},"ĥ":{"ha":746,"x_min":139,"x_max":607,"o":"m 236 0 l 139 0 l 139 903 l 236 903 l 236 500 l 510 500 l 510 903 l 607 903 l 607 0 l 510 0 l 510 417 l 236 417 l 236 0 m 372 1056 l 250 969 l 214 1006 l 350 1163 l 394 1163 l 531 1006 l 494 969 l 372 1056 z "},"Ħ":{"ha":746,"x_min":65,"x_max":679,"o":"m 65 701 l 65 771 l 139 771 l 139 903 l 236 903 l 236 771 l 510 771 l 510 903 l 607 903 l 607 771 l 679 771 l 679 701 l 607 701 l 607 0 l 510 0 l 510 417 l 236 417 l 236 0 l 139 0 l 139 701 l 65 701 m 236 500 l 510 500 l 510 701 l 236 701 l 236 500 z "},"ħ":{"ha":746,"x_min":65,"x_max":679,"o":"m 65 701 l 65 771 l 139 771 l 139 903 l 236 903 l 236 771 l 510 771 l 510 903 l 607 903 l 607 771 l 679 771 l 679 701 l 607 701 l 607 0 l 510 0 l 510 417 l 236 417 l 236 0 l 139 0 l 139 701 l 65 701 m 236 500 l 510 500 l 510 701 l 236 701 l 236 500 z "},"Ĩ":{"ha":431,"x_min":51,"x_max":379,"o":"m 333 83 l 333 0 l 97 0 l 97 83 l 167 83 l 167 819 l 97 819 l 97 903 l 333 903 l 333 819 l 264 819 l 264 83 l 333 83 m 275 1054 q 215 1028 254 1054 q 141 1001 176 1001 q 81 1029 106 1001 q 51 1104 56 1057 l 108 1124 q 156 1085 122 1085 q 215 1111 176 1085 q 290 1138 254 1138 q 350 1110 325 1138 q 379 1035 375 1082 l 322 1015 q 275 1054 308 1054 z "},"ĩ":{"ha":375,"x_min":24,"x_max":351,"o":"m 236 0 l 139 0 l 139 903 l 236 903 l 236 0 m 247 1054 q 188 1028 226 1054 q 113 1001 149 1001 q 53 1029 78 1001 q 24 1104 28 1057 l 81 1124 q 128 1085 94 1085 q 188 1111 149 1085 q 262 1138 226 1138 q 322 1110 297 1138 q 351 1035 347 1082 l 294 1015 q 247 1054 281 1054 z "},"Ī":{"ha":431,"x_min":65,"x_max":365,"o":"m 333 83 l 333 0 l 97 0 l 97 83 l 167 83 l 167 819 l 97 819 l 97 903 l 333 903 l 333 819 l 264 819 l 264 83 l 333 83 m 65 1028 l 65 1111 l 365 1111 l 365 1028 l 65 1028 z "},"ī":{"ha":375,"x_min":38,"x_max":338,"o":"m 236 0 l 139 0 l 139 903 l 236 903 l 236 0 m 38 1028 l 38 1111 l 338 1111 l 338 1028 l 38 1028 z "},"Ĭ":{"ha":431,"x_min":79,"x_max":351,"o":"m 333 83 l 333 0 l 97 0 l 97 83 l 167 83 l 167 819 l 97 819 l 97 903 l 333 903 l 333 819 l 264 819 l 264 83 l 333 83 m 156 1133 l 156 1106 q 215 1063 156 1063 q 275 1106 275 1063 l 275 1133 l 351 1133 l 351 1097 q 215 993 351 993 q 79 1097 79 993 l 79 1133 l 156 1133 z "},"ĭ":{"ha":375,"x_min":51,"x_max":324,"o":"m 236 0 l 139 0 l 139 903 l 236 903 l 236 0 m 128 1133 l 128 1106 q 188 1063 128 1063 q 247 1106 247 1063 l 247 1133 l 324 1133 l 324 1097 q 188 993 324 993 q 51 1097 51 993 l 51 1133 l 128 1133 z "},"Į":{"ha":431,"x_min":97,"x_max":360,"o":"m 97 0 l 97 83 l 167 83 l 167 819 l 97 819 l 97 903 l 333 903 l 333 819 l 264 819 l 264 83 l 333 83 l 333 0 l 246 -71 q 178 -172 178 -126 l 178 -231 q 235 -274 178 -274 q 293 -231 293 -274 l 293 -189 l 360 -189 l 360 -228 q 235 -333 360 -333 q 111 -228 111 -333 l 111 -172 q 168 -57 111 -110 l 236 0 l 97 0 z "},"į":{"ha":375,"x_min":14,"x_max":263,"o":"m 236 0 l 139 0 l 139 903 l 236 903 l 236 0 m 81 -172 l 81 -231 q 138 -274 81 -274 q 196 -231 196 -274 l 196 -189 l 263 -189 l 263 -228 q 138 -333 263 -333 q 14 -228 14 -333 l 14 -172 q 71 -57 14 -110 l 139 0 l 236 0 l 149 -71 q 81 -172 81 -126 z "},"İ":{"ha":431,"x_min":97,"x_max":333,"o":"m 333 83 l 333 0 l 97 0 l 97 83 l 167 83 l 167 819 l 97 819 l 97 903 l 333 903 l 333 819 l 264 819 l 264 83 l 333 83 m 271 993 l 160 993 l 160 1146 l 271 1146 l 271 993 z "},"ı":{"ha":375,"x_min":139,"x_max":236,"o":"m 236 0 l 139 0 l 139 903 l 236 903 l 236 0 z "},"Ĳ":{"ha":958,"x_min":97,"x_max":833,"o":"m 333 83 l 333 0 l 97 0 l 97 83 l 167 83 l 167 819 l 97 819 l 97 903 l 333 903 l 333 819 l 264 819 l 264 83 l 333 83 m 556 903 l 833 903 l 833 160 q 783 25 833 71 q 644 -21 733 -21 q 507 25 556 -21 q 458 160 458 71 l 458 250 l 556 250 l 556 154 q 644 63 556 63 q 736 154 736 63 l 736 819 l 556 819 l 556 903 z "},"ĳ":{"ha":903,"x_min":139,"x_max":778,"o":"m 236 0 l 139 0 l 139 903 l 236 903 l 236 0 m 681 903 l 778 903 l 778 160 q 728 25 778 71 q 589 -21 678 -21 q 451 25 500 -21 q 403 160 403 71 l 403 250 l 500 250 l 500 154 q 589 63 500 63 q 681 154 681 63 l 681 903 z "},"Ĵ":{"ha":528,"x_min":28,"x_max":514,"o":"m 125 903 l 403 903 l 403 160 q 353 25 403 71 q 214 -21 303 -21 q 76 25 125 -21 q 28 160 28 71 l 28 250 l 125 250 l 125 154 q 214 63 125 63 q 306 154 306 63 l 306 819 l 125 819 l 125 903 m 356 1056 l 233 969 l 197 1006 l 333 1163 l 378 1163 l 514 1006 l 478 969 l 356 1056 z "},"ĵ":{"ha":528,"x_min":28,"x_max":513,"o":"m 306 903 l 403 903 l 403 160 q 353 25 403 71 q 214 -21 303 -21 q 76 25 125 -21 q 28 160 28 71 l 28 250 l 125 250 l 125 154 q 214 63 125 63 q 306 154 306 63 l 306 903 m 354 1056 l 232 969 l 196 1006 l 332 1163 l 376 1163 l 513 1006 l 476 969 l 354 1056 z "},"Ķ":{"ha":632,"x_min":140,"x_max":604,"o":"m 238 0 l 140 0 l 140 903 l 238 903 l 238 519 l 479 903 l 588 903 l 342 514 l 604 0 l 497 0 l 283 421 l 238 347 l 238 0 m 260 -76 l 371 -76 l 371 -194 l 310 -356 l 265 -347 l 293 -215 l 260 -203 l 260 -76 z "},"ķ":{"ha":632,"x_min":140,"x_max":604,"o":"m 238 0 l 140 0 l 140 903 l 238 903 l 238 519 l 479 903 l 588 903 l 342 514 l 604 0 l 497 0 l 283 421 l 238 347 l 238 0 m 260 -76 l 371 -76 l 371 -194 l 310 -356 l 265 -347 l 293 -215 l 260 -203 l 260 -76 z "},"ĸ":{"ha":632,"x_min":140,"x_max":604,"o":"m 238 0 l 140 0 l 140 903 l 238 903 l 238 519 l 479 903 l 588 903 l 342 514 l 604 0 l 497 0 l 283 421 l 238 347 l 238 0 z "},"Ĺ":{"ha":518,"x_min":72,"x_max":490,"o":"m 139 0 l 139 903 l 236 903 l 236 83 l 490 83 l 490 0 l 139 0 m 318 1101 l 265 1049 l 108 969 l 72 1006 l 243 1176 l 318 1101 z "},"ĺ":{"ha":518,"x_min":72,"x_max":490,"o":"m 139 0 l 139 903 l 236 903 l 236 83 l 490 83 l 490 0 l 139 0 m 318 1101 l 265 1049 l 108 969 l 72 1006 l 243 1176 l 318 1101 z "},"Ļ":{"ha":518,"x_min":139,"x_max":490,"o":"m 139 0 l 139 903 l 236 903 l 236 83 l 490 83 l 490 0 l 139 0 m 264 -76 l 375 -76 l 375 -194 l 314 -356 l 269 -347 l 297 -215 l 264 -203 l 264 -76 z "},"ļ":{"ha":518,"x_min":139,"x_max":490,"o":"m 139 0 l 139 903 l 236 903 l 236 83 l 490 83 l 490 0 l 139 0 m 264 -76 l 375 -76 l 375 -194 l 314 -356 l 269 -347 l 297 -215 l 264 -203 l 264 -76 z "},"Ľ":{"ha":518,"x_min":139,"x_max":518,"o":"m 139 0 l 139 903 l 236 903 l 236 83 l 490 83 l 490 0 l 139 0 m 407 993 l 518 993 l 518 875 l 457 714 l 413 722 l 440 854 l 407 867 l 407 993 z "},"ľ":{"ha":518,"x_min":139,"x_max":518,"o":"m 139 0 l 139 903 l 236 903 l 236 83 l 490 83 l 490 0 l 139 0 m 407 993 l 518 993 l 518 875 l 457 714 l 413 722 l 440 854 l 407 867 l 407 993 z "},"Ŀ":{"ha":518,"x_min":139,"x_max":490,"o":"m 139 0 l 139 903 l 236 903 l 236 83 l 490 83 l 490 0 l 139 0 m 476 375 l 351 375 l 351 528 l 476 528 l 476 375 z "},"ŀ":{"ha":518,"x_min":139,"x_max":490,"o":"m 139 0 l 139 903 l 236 903 l 236 83 l 490 83 l 490 0 l 139 0 m 476 375 l 351 375 l 351 528 l 476 528 l 476 375 z "},"Ł":{"ha":518,"x_min":1,"x_max":490,"o":"m 139 903 l 236 903 l 236 521 l 347 578 l 379 515 l 236 442 l 236 83 l 490 83 l 490 0 l 139 0 l 139 393 l 33 339 l 1 401 l 139 471 l 139 903 z "},"ł":{"ha":518,"x_min":1,"x_max":490,"o":"m 139 903 l 236 903 l 236 521 l 347 578 l 379 515 l 236 442 l 236 83 l 490 83 l 490 0 l 139 0 l 139 393 l 33 339 l 1 401 l 139 471 l 139 903 z "},"Ń":{"ha":774,"x_min":139,"x_max":635,"o":"m 236 0 l 139 0 l 139 903 l 236 903 l 538 208 l 538 903 l 635 903 l 635 0 l 538 0 l 236 694 l 236 0 m 510 1101 l 457 1049 l 300 969 l 264 1006 l 435 1176 l 510 1101 z "},"ń":{"ha":729,"x_min":139,"x_max":604,"o":"m 236 0 l 139 0 l 139 903 l 181 903 l 215 813 q 400 924 282 924 q 604 729 604 924 l 604 0 l 507 0 l 507 729 q 484 811 507 782 q 400 840 461 840 q 288 793 339 840 q 236 701 236 746 l 236 0 m 488 1101 l 435 1049 l 278 969 l 242 1006 l 413 1176 l 488 1101 z "},"Ņ":{"ha":774,"x_min":139,"x_max":635,"o":"m 236 0 l 139 0 l 139 903 l 236 903 l 538 208 l 538 903 l 635 903 l 635 0 l 538 0 l 236 694 l 236 0 m 331 -76 l 442 -76 l 442 -194 l 381 -356 l 336 -347 l 364 -215 l 331 -203 l 331 -76 z "},"ņ":{"ha":729,"x_min":139,"x_max":604,"o":"m 236 0 l 139 0 l 139 903 l 181 903 l 215 813 q 400 924 282 924 q 604 729 604 924 l 604 0 l 507 0 l 507 729 q 484 811 507 782 q 400 840 461 840 q 288 793 339 840 q 236 701 236 746 l 236 0 m 308 -76 l 419 -76 l 419 -194 l 358 -356 l 314 -347 l 342 -215 l 308 -203 l 308 -76 z "},"Ň":{"ha":774,"x_min":139,"x_max":635,"o":"m 236 0 l 139 0 l 139 903 l 236 903 l 538 208 l 538 903 l 635 903 l 635 0 l 538 0 l 236 694 l 236 0 m 386 1081 l 508 1167 l 544 1131 l 408 974 l 364 974 l 228 1131 l 264 1167 l 386 1081 z "},"ň":{"ha":729,"x_min":139,"x_max":604,"o":"m 236 0 l 139 0 l 139 903 l 181 903 l 215 813 q 400 924 282 924 q 604 729 604 924 l 604 0 l 507 0 l 507 729 q 484 811 507 782 q 400 840 461 840 q 288 793 339 840 q 236 701 236 746 l 236 0 m 364 1081 l 486 1167 l 522 1131 l 386 974 l 342 974 l 206 1131 l 242 1167 l 364 1081 z "},"ŉ":{"ha":729,"x_min":-56,"x_max":604,"o":"m 236 0 l 139 0 l 139 903 l 181 903 l 215 813 q 400 924 282 924 q 604 729 604 924 l 604 0 l 507 0 l 507 729 q 484 811 507 782 q 400 840 461 840 q 288 793 339 840 q 236 701 236 746 l 236 0 m -56 994 l 56 994 l 56 876 l -6 715 l -50 724 l -22 856 l -56 868 l -56 994 z "},"Ŋ":{"ha":774,"x_min":139,"x_max":635,"o":"m 236 0 l 139 0 l 139 903 l 236 903 l 538 208 l 538 903 l 635 903 l 635 -187 q 585 -322 635 -276 q 446 -368 535 -368 q 308 -322 357 -368 q 260 -187 260 -276 l 260 -153 l 357 -153 l 357 -193 q 446 -285 357 -285 q 538 -193 538 -285 l 538 0 l 236 694 l 236 0 z "},"ŋ":{"ha":729,"x_min":139,"x_max":604,"o":"m 236 0 l 139 0 l 139 903 l 181 903 l 215 813 q 400 924 282 924 q 604 729 604 924 l 604 -187 q 554 -322 604 -276 q 415 -368 504 -368 q 278 -322 326 -368 q 229 -187 229 -276 l 229 -153 l 326 -153 l 326 -193 q 415 -285 326 -285 q 507 -193 507 -285 l 507 729 q 484 811 507 782 q 400 840 461 840 q 288 793 339 840 q 236 701 236 746 l 236 0 z "},"Ō":{"ha":708,"x_min":118,"x_max":590,"o":"m 590 729 l 590 174 q 531 30 590 81 q 355 -21 472 -21 q 178 30 238 -21 q 118 174 118 81 l 118 729 q 177 873 118 822 q 353 924 236 924 q 531 873 471 924 q 590 729 590 822 m 493 174 l 493 729 q 354 840 493 840 q 215 729 215 840 l 215 174 q 354 63 215 63 q 493 174 493 63 m 204 1028 l 204 1111 l 504 1111 l 504 1028 l 204 1028 z "},"ō":{"ha":708,"x_min":118,"x_max":590,"o":"m 590 729 l 590 174 q 531 30 590 81 q 355 -21 472 -21 q 178 30 238 -21 q 118 174 118 81 l 118 729 q 177 873 118 822 q 353 924 236 924 q 531 873 471 924 q 590 729 590 822 m 493 174 l 493 729 q 354 840 493 840 q 215 729 215 840 l 215 174 q 354 63 215 63 q 493 174 493 63 m 204 1028 l 204 1111 l 504 1111 l 504 1028 l 204 1028 z "},"Ŏ":{"ha":708,"x_min":118,"x_max":590,"o":"m 590 729 l 590 174 q 531 30 590 81 q 355 -21 472 -21 q 178 30 238 -21 q 118 174 118 81 l 118 729 q 177 873 118 822 q 353 924 236 924 q 531 873 471 924 q 590 729 590 822 m 493 174 l 493 729 q 354 840 493 840 q 215 729 215 840 l 215 174 q 354 63 215 63 q 493 174 493 63 m 294 1133 l 294 1106 q 354 1063 294 1063 q 414 1106 414 1063 l 414 1133 l 490 1133 l 490 1097 q 354 993 490 993 q 218 1097 218 993 l 218 1133 l 294 1133 z "},"ŏ":{"ha":708,"x_min":118,"x_max":590,"o":"m 590 729 l 590 174 q 531 30 590 81 q 355 -21 472 -21 q 178 30 238 -21 q 118 174 118 81 l 118 729 q 177 873 118 822 q 353 924 236 924 q 531 873 471 924 q 590 729 590 822 m 493 174 l 493 729 q 354 840 493 840 q 215 729 215 840 l 215 174 q 354 63 215 63 q 493 174 493 63 m 294 1133 l 294 1106 q 354 1063 294 1063 q 414 1106 414 1063 l 414 1133 l 490 1133 l 490 1097 q 354 993 490 993 q 218 1097 218 993 l 218 1133 l 294 1133 z "},"Ő":{"ha":708,"x_min":118,"x_max":644,"o":"m 590 729 l 590 174 q 531 30 590 81 q 355 -21 472 -21 q 178 30 238 -21 q 118 174 118 81 l 118 729 q 177 873 118 822 q 353 924 236 924 q 531 873 471 924 q 590 729 590 822 m 493 174 l 493 729 q 354 840 493 840 q 215 729 215 840 l 215 174 q 354 63 215 63 q 493 174 493 63 m 394 1101 l 342 1049 l 185 969 l 149 1006 l 319 1176 l 394 1101 m 644 1101 l 592 1049 l 435 969 l 399 1006 l 569 1176 l 644 1101 z "},"ő":{"ha":708,"x_min":118,"x_max":644,"o":"m 590 729 l 590 174 q 531 30 590 81 q 355 -21 472 -21 q 178 30 238 -21 q 118 174 118 81 l 118 729 q 177 873 118 822 q 353 924 236 924 q 531 873 471 924 q 590 729 590 822 m 493 174 l 493 729 q 354 840 493 840 q 215 729 215 840 l 215 174 q 354 63 215 63 q 493 174 493 63 m 394 1101 l 342 1049 l 185 969 l 149 1006 l 319 1176 l 394 1101 m 644 1101 l 592 1049 l 435 969 l 399 1006 l 569 1176 l 644 1101 z "},"Œ":{"ha":972,"x_min":118,"x_max":903,"o":"m 590 729 l 590 500 l 833 500 l 833 417 l 590 417 l 590 174 q 571 83 590 122 l 903 83 l 903 0 l 481 0 q 356 -21 431 -21 q 178 30 238 -21 q 118 174 118 81 l 118 729 q 177 873 118 822 q 353 924 236 924 q 479 903 428 924 l 889 903 l 889 819 l 571 819 q 590 729 590 778 m 493 174 l 493 729 q 354 840 493 840 q 215 729 215 840 l 215 174 q 354 63 215 63 q 493 174 493 63 z "},"œ":{"ha":1069,"x_min":118,"x_max":951,"o":"m 854 174 l 854 250 l 951 250 l 951 174 q 894 30 951 81 q 716 -21 838 -21 q 542 51 594 -21 q 363 -21 489 -21 q 178 30 238 -21 q 118 174 118 81 l 118 729 q 177 873 118 822 q 363 924 236 924 q 540 850 489 924 q 713 924 590 924 q 893 873 835 924 q 951 729 951 822 l 951 424 l 590 424 l 590 174 q 722 63 590 63 q 854 174 854 63 m 493 174 l 493 729 q 354 840 493 840 q 215 729 215 840 l 215 174 q 354 63 215 63 q 493 174 493 63 m 590 729 l 590 507 l 854 507 l 854 729 q 722 840 854 840 q 590 729 590 840 z "},"Ŕ":{"ha":674,"x_min":139,"x_max":618,"o":"m 236 0 l 139 0 l 139 903 l 349 903 q 513 851 457 903 q 569 708 569 800 l 569 514 q 447 333 569 372 l 618 0 l 511 0 l 349 319 l 236 319 l 236 0 m 472 514 l 472 708 q 440 790 472 761 q 349 819 408 819 l 236 819 l 236 403 l 349 403 q 472 514 472 403 m 474 1101 l 421 1049 l 264 969 l 228 1006 l 399 1176 l 474 1101 z "},"ŕ":{"ha":556,"x_min":139,"x_max":528,"o":"m 236 0 l 139 0 l 139 903 l 181 903 l 221 800 q 363 924 265 924 q 528 743 528 924 l 528 653 l 435 653 l 435 749 q 358 840 435 840 q 274 788 313 840 q 236 635 236 735 l 236 0 m 469 1101 l 417 1049 l 260 969 l 224 1006 l 394 1176 l 469 1101 z "},"Ŗ":{"ha":674,"x_min":139,"x_max":618,"o":"m 236 0 l 139 0 l 139 903 l 349 903 q 513 851 457 903 q 569 708 569 800 l 569 514 q 447 333 569 372 l 618 0 l 511 0 l 349 319 l 236 319 l 236 0 m 472 514 l 472 708 q 440 790 472 761 q 349 819 408 819 l 236 819 l 236 403 l 349 403 q 472 514 472 403 m 281 -76 l 392 -76 l 392 -194 l 331 -356 l 286 -347 l 314 -215 l 281 -203 l 281 -76 z "},"ŗ":{"ha":556,"x_min":132,"x_max":528,"o":"m 236 0 l 139 0 l 139 903 l 181 903 l 221 800 q 363 924 265 924 q 528 743 528 924 l 528 653 l 435 653 l 435 749 q 358 840 435 840 q 274 788 313 840 q 236 635 236 735 l 236 0 m 132 -76 l 243 -76 l 243 -194 l 182 -356 l 138 -347 l 165 -215 l 132 -203 l 132 -76 z "},"Ř":{"ha":674,"x_min":139,"x_max":618,"o":"m 236 0 l 139 0 l 139 903 l 349 903 q 513 851 457 903 q 569 708 569 800 l 569 514 q 447 333 569 372 l 618 0 l 511 0 l 349 319 l 236 319 l 236 0 m 472 514 l 472 708 q 440 790 472 761 q 349 819 408 819 l 236 819 l 236 403 l 349 403 q 472 514 472 403 m 336 1081 l 458 1167 l 494 1131 l 358 974 l 314 974 l 178 1131 l 214 1167 l 336 1081 z "},"ř":{"ha":556,"x_min":139,"x_max":528,"o":"m 236 0 l 139 0 l 139 903 l 181 903 l 221 800 q 363 924 265 924 q 528 743 528 924 l 528 653 l 435 653 l 435 749 q 358 840 435 840 q 274 788 313 840 q 236 635 236 735 l 236 0 m 333 1081 l 456 1167 l 492 1131 l 356 974 l 311 974 l 175 1131 l 211 1167 l 333 1081 z "},"Ś":{"ha":692,"x_min":111,"x_max":581,"o":"m 581 174 q 346 -21 581 -21 q 111 174 111 -21 l 111 292 l 208 292 l 208 168 q 243 90 208 118 q 346 63 278 63 q 449 90 414 63 q 483 166 483 118 q 473 242 483 214 q 431 303 463 271 l 186 542 q 127 626 143 585 q 111 729 111 667 q 169 873 111 822 q 343 924 226 924 q 567 729 567 924 l 567 611 l 469 611 l 469 735 q 437 813 469 785 q 339 840 404 840 q 241 813 274 840 q 208 736 208 785 q 218 660 208 688 q 261 601 228 632 l 510 363 q 565 277 550 318 q 581 174 581 236 m 468 1101 l 415 1049 l 258 969 l 222 1006 l 393 1176 l 468 1101 z "},"ś":{"ha":692,"x_min":111,"x_max":581,"o":"m 581 174 q 346 -21 581 -21 q 111 174 111 -21 l 111 292 l 208 292 l 208 168 q 243 90 208 118 q 346 63 278 63 q 449 90 414 63 q 483 166 483 118 q 473 242 483 214 q 431 303 463 271 l 186 542 q 127 626 143 585 q 111 729 111 667 q 169 873 111 822 q 343 924 226 924 q 567 729 567 924 l 567 611 l 469 611 l 469 735 q 437 813 469 785 q 339 840 404 840 q 241 813 274 840 q 208 736 208 785 q 218 660 208 688 q 261 601 228 632 l 510 363 q 565 277 550 318 q 581 174 581 236 m 468 1101 l 415 1049 l 258 969 l 222 1006 l 393 1176 l 468 1101 z "},"Ŝ":{"ha":692,"x_min":111,"x_max":581,"o":"m 581 174 q 346 -21 581 -21 q 111 174 111 -21 l 111 292 l 208 292 l 208 168 q 243 90 208 118 q 346 63 278 63 q 449 90 414 63 q 483 166 483 118 q 473 242 483 214 q 431 303 463 271 l 186 542 q 127 626 143 585 q 111 729 111 667 q 169 873 111 822 q 343 924 226 924 q 567 729 567 924 l 567 611 l 469 611 l 469 735 q 437 813 469 785 q 339 840 404 840 q 241 813 274 840 q 208 736 208 785 q 218 660 208 688 q 261 601 228 632 l 510 363 q 565 277 550 318 q 581 174 581 236 m 346 1056 l 224 969 l 188 1006 l 324 1163 l 368 1163 l 504 1006 l 468 969 l 346 1056 z "},"ŝ":{"ha":692,"x_min":111,"x_max":581,"o":"m 581 174 q 346 -21 581 -21 q 111 174 111 -21 l 111 292 l 208 292 l 208 168 q 243 90 208 118 q 346 63 278 63 q 449 90 414 63 q 483 166 483 118 q 473 242 483 214 q 431 303 463 271 l 186 542 q 127 626 143 585 q 111 729 111 667 q 169 873 111 822 q 343 924 226 924 q 567 729 567 924 l 567 611 l 469 611 l 469 735 q 437 813 469 785 q 339 840 404 840 q 241 813 274 840 q 208 736 208 785 q 218 660 208 688 q 261 601 228 632 l 510 363 q 565 277 550 318 q 581 174 581 236 m 346 1056 l 224 969 l 188 1006 l 324 1163 l 368 1163 l 504 1006 l 468 969 l 346 1056 z "},"Ş":{"ha":692,"x_min":111,"x_max":581,"o":"m 581 174 q 358 -21 581 -15 l 346 -86 l 353 -86 q 440 -116 410 -86 q 469 -196 469 -146 l 469 -228 q 345 -333 469 -333 q 221 -228 221 -333 l 221 -217 l 288 -217 l 288 -231 q 345 -274 288 -274 q 403 -231 403 -274 l 403 -196 q 389 -161 403 -176 q 353 -146 375 -146 l 269 -146 l 294 -18 q 111 174 111 4 l 111 292 l 208 292 l 208 168 q 243 90 208 118 q 346 63 278 63 q 449 90 414 63 q 483 166 483 118 q 473 242 483 214 q 431 303 463 271 l 186 542 q 127 626 143 585 q 111 729 111 667 q 169 873 111 822 q 343 924 226 924 q 567 729 567 924 l 567 611 l 469 611 l 469 735 q 437 813 469 785 q 339 840 404 840 q 241 813 274 840 q 208 736 208 785 q 218 660 208 688 q 261 601 228 632 l 510 363 q 565 277 550 318 q 581 174 581 236 z "},"ş":{"ha":692,"x_min":111,"x_max":581,"o":"m 581 174 q 358 -21 581 -15 l 346 -86 l 353 -86 q 440 -116 410 -86 q 469 -196 469 -146 l 469 -228 q 345 -333 469 -333 q 221 -228 221 -333 l 221 -217 l 288 -217 l 288 -231 q 345 -274 288 -274 q 403 -231 403 -274 l 403 -196 q 389 -161 403 -176 q 353 -146 375 -146 l 269 -146 l 294 -18 q 111 174 111 4 l 111 292 l 208 292 l 208 168 q 243 90 208 118 q 346 63 278 63 q 449 90 414 63 q 483 166 483 118 q 473 242 483 214 q 431 303 463 271 l 186 542 q 127 626 143 585 q 111 729 111 667 q 169 873 111 822 q 343 924 226 924 q 567 729 567 924 l 567 611 l 469 611 l 469 735 q 437 813 469 785 q 339 840 404 840 q 241 813 274 840 q 208 736 208 785 q 218 660 208 688 q 261 601 228 632 l 510 363 q 565 277 550 318 q 581 174 581 236 z "},"Š":{"ha":692,"x_min":111,"x_max":581,"o":"m 581 174 q 346 -21 581 -21 q 111 174 111 -21 l 111 292 l 208 292 l 208 168 q 243 90 208 118 q 346 63 278 63 q 449 90 414 63 q 483 166 483 118 q 473 242 483 214 q 431 303 463 271 l 186 542 q 127 626 143 585 q 111 729 111 667 q 169 873 111 822 q 343 924 226 924 q 567 729 567 924 l 567 611 l 469 611 l 469 735 q 437 813 469 785 q 339 840 404 840 q 241 813 274 840 q 208 736 208 785 q 218 660 208 688 q 261 601 228 632 l 510 363 q 565 277 550 318 q 581 174 581 236 m 346 1081 l 468 1167 l 504 1131 l 368 974 l 324 974 l 188 1131 l 224 1167 l 346 1081 z "},"š":{"ha":692,"x_min":111,"x_max":581,"o":"m 581 174 q 346 -21 581 -21 q 111 174 111 -21 l 111 292 l 208 292 l 208 168 q 243 90 208 118 q 346 63 278 63 q 449 90 414 63 q 483 166 483 118 q 473 242 483 214 q 431 303 463 271 l 186 542 q 127 626 143 585 q 111 729 111 667 q 169 873 111 822 q 343 924 226 924 q 567 729 567 924 l 567 611 l 469 611 l 469 735 q 437 813 469 785 q 339 840 404 840 q 241 813 274 840 q 208 736 208 785 q 218 660 208 688 q 261 601 228 632 l 510 363 q 565 277 550 318 q 581 174 581 236 m 346 1081 l 468 1167 l 504 1131 l 368 974 l 324 974 l 188 1131 l 224 1167 l 346 1081 z "},"Ţ":{"ha":601,"x_min":42,"x_max":500,"o":"m 500 903 l 500 819 l 319 819 l 319 0 l 304 0 l 288 -86 l 294 -86 q 381 -116 351 -86 q 411 -196 411 -146 l 411 -228 q 287 -333 411 -333 q 163 -228 163 -333 l 163 -217 l 229 -217 l 229 -231 q 287 -274 229 -274 q 344 -231 344 -274 l 344 -196 q 331 -161 344 -176 q 294 -146 317 -146 l 211 -146 l 239 0 l 222 0 l 222 819 l 42 819 l 42 903 l 500 903 z "},"ţ":{"ha":490,"x_min":118,"x_max":465,"o":"m 118 903 l 424 903 l 424 819 l 215 819 l 215 154 q 235 89 215 115 q 292 63 256 63 q 349 88 329 63 q 368 154 368 114 l 368 319 l 465 319 l 465 160 q 423 29 465 75 q 307 -21 381 -17 l 294 -86 l 301 -86 q 388 -116 358 -86 q 418 -196 418 -146 l 418 -228 q 294 -333 418 -333 q 169 -228 169 -333 l 169 -217 l 236 -217 l 236 -231 q 294 -274 236 -274 q 351 -231 351 -274 l 351 -196 q 338 -161 351 -176 q 301 -146 324 -146 l 218 -146 l 243 -15 q 151 42 185 -3 q 118 160 118 86 l 118 903 z "},"Ť":{"ha":542,"x_min":42,"x_max":500,"o":"m 500 903 l 500 819 l 319 819 l 319 0 l 222 0 l 222 819 l 42 819 l 42 903 l 500 903 m 271 1081 l 393 1167 l 429 1131 l 293 974 l 249 974 l 113 1131 l 149 1167 l 271 1081 z "},"ť":{"ha":521,"x_min":118,"x_max":604,"o":"m 118 903 l 424 903 l 424 819 l 215 819 l 215 154 q 235 89 215 115 q 292 63 256 63 q 349 88 329 63 q 368 154 368 114 l 368 319 l 465 319 l 465 160 q 419 26 465 72 q 293 -21 372 -21 q 166 26 214 -21 q 118 160 118 72 l 118 903 m 493 993 l 604 993 l 604 875 l 543 714 l 499 722 l 526 854 l 493 867 l 493 993 z "},"Ŧ":{"ha":542,"x_min":36,"x_max":506,"o":"m 36 563 l 36 632 l 222 632 l 222 819 l 42 819 l 42 903 l 500 903 l 500 819 l 319 819 l 319 632 l 506 632 l 506 563 l 319 563 l 319 0 l 222 0 l 222 563 l 36 563 z "},"ŧ":{"ha":521,"x_min":28,"x_max":497,"o":"m 28 563 l 28 632 l 118 632 l 118 903 l 424 903 l 424 819 l 215 819 l 215 632 l 497 632 l 497 563 l 215 563 l 215 154 q 235 89 215 115 q 292 63 256 63 q 349 88 329 63 q 368 154 368 114 l 368 319 l 465 319 l 465 160 q 419 26 465 72 q 293 -21 372 -21 q 166 26 214 -21 q 118 160 118 72 l 118 563 l 28 563 z "},"Ũ":{"ha":722,"x_min":125,"x_max":597,"o":"m 500 174 l 500 903 l 597 903 l 597 174 q 538 30 597 81 q 362 -21 479 -21 q 185 30 244 -21 q 125 174 125 81 l 125 903 l 222 903 l 222 174 q 361 63 222 63 q 500 174 500 63 m 421 1054 q 361 1028 400 1054 q 287 1001 322 1001 q 226 1029 251 1001 q 197 1104 201 1057 l 254 1124 q 301 1085 268 1085 q 361 1111 322 1085 q 435 1138 400 1138 q 496 1110 471 1138 q 525 1035 521 1082 l 468 1015 q 421 1054 454 1054 z "},"ũ":{"ha":729,"x_min":125,"x_max":590,"o":"m 125 174 l 125 903 l 222 903 l 222 174 q 245 92 222 121 q 329 63 268 63 q 442 110 390 63 q 493 201 493 157 l 493 903 l 590 903 l 590 0 l 549 0 l 513 89 q 434 9 482 39 q 329 -21 386 -21 q 125 174 125 -21 m 424 1054 q 364 1028 403 1054 q 290 1001 325 1001 q 229 1029 254 1001 q 200 1104 204 1057 l 257 1124 q 304 1085 271 1085 q 364 1111 325 1085 q 438 1138 403 1138 q 499 1110 474 1138 q 528 1035 524 1082 l 471 1015 q 424 1054 457 1054 z "},"Ū":{"ha":722,"x_min":125,"x_max":597,"o":"m 500 174 l 500 903 l 597 903 l 597 174 q 538 30 597 81 q 362 -21 479 -21 q 185 30 244 -21 q 125 174 125 81 l 125 903 l 222 903 l 222 174 q 361 63 222 63 q 500 174 500 63 m 211 1028 l 211 1111 l 511 1111 l 511 1028 l 211 1028 z "},"ū":{"ha":729,"x_min":125,"x_max":590,"o":"m 125 174 l 125 903 l 222 903 l 222 174 q 245 92 222 121 q 329 63 268 63 q 442 110 390 63 q 493 201 493 157 l 493 903 l 590 903 l 590 0 l 549 0 l 513 89 q 434 9 482 39 q 329 -21 386 -21 q 125 174 125 -21 m 214 1028 l 214 1111 l 514 1111 l 514 1028 l 214 1028 z "},"Ŭ":{"ha":722,"x_min":125,"x_max":597,"o":"m 500 174 l 500 903 l 597 903 l 597 174 q 538 30 597 81 q 362 -21 479 -21 q 185 30 244 -21 q 125 174 125 81 l 125 903 l 222 903 l 222 174 q 361 63 222 63 q 500 174 500 63 m 301 1133 l 301 1106 q 361 1063 301 1063 q 421 1106 421 1063 l 421 1133 l 497 1133 l 497 1097 q 361 993 497 993 q 225 1097 225 993 l 225 1133 l 301 1133 z "},"ŭ":{"ha":729,"x_min":125,"x_max":590,"o":"m 125 174 l 125 903 l 222 903 l 222 174 q 245 92 222 121 q 329 63 268 63 q 442 110 390 63 q 493 201 493 157 l 493 903 l 590 903 l 590 0 l 549 0 l 513 89 q 434 9 482 39 q 329 -21 386 -21 q 125 174 125 -21 m 304 1133 l 304 1106 q 364 1063 304 1063 q 424 1106 424 1063 l 424 1133 l 500 1133 l 500 1097 q 364 993 500 993 q 228 1097 228 993 l 228 1133 l 304 1133 z "},"Ů":{"ha":722,"x_min":125,"x_max":597,"o":"m 500 174 l 500 903 l 597 903 l 597 174 q 538 30 597 81 q 362 -21 479 -21 q 185 30 244 -21 q 125 174 125 81 l 125 903 l 222 903 l 222 174 q 361 63 222 63 q 500 174 500 63 m 479 1083 l 479 1056 q 361 951 479 951 q 243 1056 243 951 l 243 1083 q 361 1188 243 1188 q 479 1083 479 1188 m 313 1083 l 313 1056 q 361 1013 313 1013 q 410 1056 410 1013 l 410 1083 q 361 1126 410 1126 q 313 1083 313 1126 z "},"ů":{"ha":729,"x_min":125,"x_max":590,"o":"m 125 174 l 125 903 l 222 903 l 222 174 q 245 92 222 121 q 329 63 268 63 q 442 110 390 63 q 493 201 493 157 l 493 903 l 590 903 l 590 0 l 549 0 l 513 89 q 434 9 482 39 q 329 -21 386 -21 q 125 174 125 -21 m 482 1083 l 482 1056 q 364 951 482 951 q 246 1056 246 951 l 246 1083 q 364 1188 246 1188 q 482 1083 482 1188 m 315 1083 l 315 1056 q 364 1013 315 1013 q 413 1056 413 1013 l 413 1083 q 364 1126 413 1126 q 315 1083 315 1126 z "},"Ű":{"ha":722,"x_min":125,"x_max":651,"o":"m 500 174 l 500 903 l 597 903 l 597 174 q 538 30 597 81 q 362 -21 479 -21 q 185 30 244 -21 q 125 174 125 81 l 125 903 l 222 903 l 222 174 q 361 63 222 63 q 500 174 500 63 m 401 1101 l 349 1049 l 192 969 l 156 1006 l 326 1176 l 401 1101 m 651 1101 l 599 1049 l 442 969 l 406 1006 l 576 1176 l 651 1101 z "},"ű":{"ha":729,"x_min":125,"x_max":654,"o":"m 125 174 l 125 903 l 222 903 l 222 174 q 245 92 222 121 q 329 63 268 63 q 442 110 390 63 q 493 201 493 157 l 493 903 l 590 903 l 590 0 l 549 0 l 513 89 q 434 9 482 39 q 329 -21 386 -21 q 125 174 125 -21 m 404 1101 l 351 1049 l 194 969 l 158 1006 l 329 1176 l 404 1101 m 654 1101 l 601 1049 l 444 969 l 408 1006 l 579 1176 l 654 1101 z "},"Ų":{"ha":722,"x_min":125,"x_max":597,"o":"m 500 174 l 500 903 l 597 903 l 597 174 q 486 0 597 43 l 400 -71 q 332 -172 332 -126 l 332 -231 q 390 -274 332 -274 q 447 -231 447 -274 l 447 -189 l 514 -189 l 514 -228 q 390 -333 514 -333 q 265 -228 265 -333 l 265 -172 q 322 -57 265 -110 l 365 -21 l 363 -21 q 185 30 244 -21 q 125 174 125 81 l 125 903 l 222 903 l 222 174 q 361 63 222 63 q 500 174 500 63 z "},"ų":{"ha":729,"x_min":125,"x_max":617,"o":"m 125 174 l 125 903 l 222 903 l 222 174 q 245 92 222 121 q 329 63 268 63 q 442 110 390 63 q 493 201 493 157 l 493 903 l 590 903 l 590 0 l 503 -71 q 435 -172 435 -126 l 435 -231 q 492 -274 435 -274 q 550 -231 550 -274 l 550 -189 l 617 -189 l 617 -228 q 492 -333 617 -333 q 368 -228 368 -333 l 368 -172 q 425 -57 368 -104 l 535 35 l 513 89 q 434 9 482 39 q 329 -21 386 -21 q 125 174 125 -21 z "},"Ŵ":{"ha":949,"x_min":63,"x_max":886,"o":"m 333 0 l 197 0 l 63 903 l 160 903 l 274 140 l 422 903 l 526 903 l 675 140 l 789 903 l 886 903 l 751 0 l 615 0 l 474 721 l 333 0 m 474 1056 l 351 969 l 315 1006 l 451 1163 l 496 1163 l 632 1006 l 596 969 l 474 1056 z "},"ŵ":{"ha":1056,"x_min":125,"x_max":931,"o":"m 479 174 l 479 903 l 576 903 l 576 174 q 705 63 576 63 q 833 174 833 63 l 833 903 l 931 903 l 931 174 q 872 31 931 82 q 699 -21 814 -21 q 528 60 585 -21 q 358 -21 474 -21 q 183 31 242 -21 q 125 174 125 82 l 125 903 l 222 903 l 222 174 q 351 63 222 63 q 479 174 479 63 m 528 1056 l 406 969 l 369 1006 l 506 1163 l 550 1163 l 686 1006 l 650 969 l 528 1056 z "},"Ŷ":{"ha":625,"x_min":35,"x_max":590,"o":"m 361 0 l 264 0 l 264 324 l 35 903 l 138 903 l 313 438 l 488 903 l 590 903 l 361 322 l 361 0 m 313 1056 l 190 969 l 154 1006 l 290 1163 l 335 1163 l 471 1006 l 435 969 l 313 1056 z "},"ŷ":{"ha":653,"x_min":90,"x_max":563,"o":"m 376 0 l 279 0 l 279 256 q 90 447 90 276 l 90 903 l 188 903 l 188 447 q 326 336 188 336 q 465 447 465 336 l 465 903 l 563 903 l 563 447 q 376 256 563 276 l 376 0 m 326 1056 l 204 969 l 168 1006 l 304 1163 l 349 1163 l 485 1006 l 449 969 l 326 1056 z "},"Ÿ":{"ha":625,"x_min":35,"x_max":590,"o":"m 361 0 l 264 0 l 264 324 l 35 903 l 138 903 l 313 438 l 488 903 l 590 903 l 361 322 l 361 0 m 264 993 l 167 993 l 167 1146 l 264 1146 l 264 993 m 458 993 l 361 993 l 361 1146 l 458 1146 l 458 993 z "},"Ź":{"ha":579,"x_min":49,"x_max":524,"o":"m 69 819 l 69 903 l 524 903 l 524 819 l 150 83 l 517 83 l 517 0 l 49 0 l 49 83 l 422 819 l 69 819 m 454 1101 l 401 1049 l 244 969 l 208 1006 l 379 1176 l 454 1101 z "},"ź":{"ha":579,"x_min":49,"x_max":524,"o":"m 69 819 l 69 903 l 524 903 l 524 819 l 150 83 l 517 83 l 517 0 l 49 0 l 49 83 l 422 819 l 69 819 m 454 1101 l 401 1049 l 244 969 l 208 1006 l 379 1176 l 454 1101 z "},"Ż":{"ha":579,"x_min":49,"x_max":524,"o":"m 69 819 l 69 903 l 524 903 l 524 819 l 150 83 l 517 83 l 517 0 l 49 0 l 49 83 l 422 819 l 69 819 m 358 993 l 247 993 l 247 1146 l 358 1146 l 358 993 z "},"ż":{"ha":579,"x_min":49,"x_max":524,"o":"m 69 819 l 69 903 l 524 903 l 524 819 l 150 83 l 517 83 l 517 0 l 49 0 l 49 83 l 422 819 l 69 819 m 358 993 l 247 993 l 247 1146 l 358 1146 l 358 993 z "},"Ž":{"ha":579,"x_min":49,"x_max":524,"o":"m 69 819 l 69 903 l 524 903 l 524 819 l 150 83 l 517 83 l 517 0 l 49 0 l 49 83 l 422 819 l 69 819 m 303 1081 l 425 1167 l 461 1131 l 325 974 l 281 974 l 144 1131 l 181 1167 l 303 1081 z "},"ž":{"ha":579,"x_min":49,"x_max":524,"o":"m 69 819 l 69 903 l 524 903 l 524 819 l 150 83 l 517 83 l 517 0 l 49 0 l 49 83 l 422 819 l 69 819 m 303 1081 l 425 1167 l 461 1131 l 325 974 l 281 974 l 144 1131 l 181 1167 l 303 1081 z "},"ƒ":{"ha":708,"x_min":125,"x_max":650,"o":"m 553 478 l 553 408 l 361 408 l 361 40 q 200 -149 361 -119 l 174 -67 q 245 -35 226 -58 q 264 35 264 -11 l 264 408 l 125 408 l 125 478 l 264 478 l 264 735 q 317 878 264 826 q 461 929 369 929 q 601 878 553 929 q 650 735 650 826 l 650 686 l 553 686 l 553 740 q 463 846 553 846 q 361 740 361 846 l 361 478 l 553 478 z "},"Ǻ":{"ha":665,"x_min":56,"x_max":610,"o":"m 260 903 l 406 903 l 610 0 l 513 0 l 465 208 l 200 208 l 153 0 l 56 0 l 260 903 m 332 794 l 218 292 l 446 292 l 332 794 m 449 1083 l 449 1056 q 331 951 449 951 q 213 1056 213 951 l 213 1083 q 331 1188 213 1188 q 393 1176 367 1188 l 490 1274 l 565 1199 l 513 1146 l 442 1125 q 449 1083 449 1104 m 282 1083 l 282 1056 q 331 1013 282 1013 q 379 1056 379 1013 l 379 1083 q 331 1126 379 1126 q 282 1083 282 1126 z "},"ǻ":{"ha":694,"x_min":111,"x_max":582,"o":"m 569 0 l 528 0 l 492 89 q 415 9 463 39 q 311 -21 368 -21 q 111 174 111 -21 l 111 313 q 311 507 111 507 l 472 507 l 472 735 q 440 813 472 785 q 346 840 408 840 q 222 735 222 840 l 222 653 l 125 653 l 125 729 q 180 873 125 822 q 346 924 235 924 q 513 873 457 924 q 569 729 569 822 l 569 0 m 472 424 l 311 424 q 231 394 253 424 q 208 313 208 365 l 208 174 q 231 92 208 121 q 311 63 253 63 q 419 108 369 63 q 472 197 469 153 l 472 424 m 465 1083 l 465 1056 q 347 951 465 951 q 229 1056 229 951 l 229 1083 q 347 1188 229 1188 q 410 1176 383 1188 l 507 1274 l 582 1199 l 529 1146 l 458 1125 q 465 1083 465 1104 m 299 1083 l 299 1056 q 347 1013 299 1013 q 396 1056 396 1013 l 396 1083 q 347 1126 396 1126 q 299 1083 299 1126 z "},"Ǽ":{"ha":944,"x_min":0,"x_max":875,"o":"m 861 903 l 861 819 l 563 819 l 563 444 l 806 444 l 806 361 l 563 361 l 563 83 l 875 83 l 875 0 l 465 0 l 465 361 l 229 361 l 97 0 l 0 0 l 329 903 l 861 903 m 465 444 l 465 819 l 396 819 l 260 444 l 465 444 m 728 1101 l 675 1049 l 518 969 l 482 1006 l 653 1176 l 728 1101 z "},"ǽ":{"ha":1049,"x_min":111,"x_max":931,"o":"m 682 1101 l 629 1049 l 472 969 l 436 1006 l 607 1176 l 682 1101 m 833 174 l 833 250 l 931 250 l 931 174 q 874 30 931 81 q 703 -21 817 -21 q 489 85 538 -21 q 311 -21 424 -21 q 111 174 111 -21 l 111 313 q 311 507 111 507 l 472 507 l 472 738 q 440 813 472 785 q 346 840 407 840 q 253 812 285 840 q 222 735 222 783 l 222 653 l 125 653 l 125 729 q 181 873 125 822 q 349 924 236 924 q 521 865 463 924 q 697 924 579 924 q 872 873 814 924 q 931 729 931 822 l 931 424 l 569 424 l 569 174 q 701 63 569 63 q 833 174 833 63 m 472 201 l 472 424 l 311 424 q 231 394 253 424 q 208 313 208 365 l 208 174 q 231 92 208 121 q 312 63 253 63 q 422 110 371 63 q 472 201 472 157 m 569 738 l 569 507 l 833 507 l 833 729 q 700 840 833 840 q 603 813 638 840 q 569 738 569 786 z "},"Ǿ":{"ha":708,"x_min":118,"x_max":590,"o":"m 118 174 l 118 729 q 177 873 118 822 q 353 924 236 924 q 428 917 390 924 l 444 986 l 507 986 l 488 899 q 590 729 590 853 l 590 174 q 531 30 590 81 q 356 -21 472 -21 q 279 -14 318 -21 l 264 -83 l 201 -83 l 221 3 q 118 174 118 50 m 215 174 q 242 99 215 125 l 410 833 q 353 840 382 840 q 215 729 215 840 l 215 174 m 493 174 l 493 729 q 465 804 493 774 l 299 68 q 356 63 321 63 q 493 174 493 63 m 476 1101 l 424 1049 l 267 969 l 231 1006 l 401 1176 l 476 1101 z "},"ǿ":{"ha":708,"x_min":118,"x_max":590,"o":"m 118 174 l 118 729 q 177 873 118 822 q 353 924 236 924 q 428 917 390 924 l 444 986 l 507 986 l 488 899 q 590 729 590 853 l 590 174 q 531 30 590 81 q 356 -21 472 -21 q 279 -14 318 -21 l 264 -83 l 201 -83 l 221 3 q 118 174 118 50 m 215 174 q 242 99 215 125 l 410 833 q 353 840 382 840 q 215 729 215 840 l 215 174 m 493 174 l 493 729 q 465 804 493 774 l 299 68 q 356 63 321 63 q 493 174 493 63 m 476 1101 l 424 1049 l 267 969 l 231 1006 l 401 1176 l 476 1101 z "},"Ș":{"ha":692,"x_min":111,"x_max":581,"o":"m 581 174 q 346 -21 581 -21 q 111 174 111 -21 l 111 292 l 208 292 l 208 168 q 243 90 208 118 q 346 63 278 63 q 449 90 414 63 q 483 166 483 118 q 473 242 483 214 q 431 303 463 271 l 186 542 q 127 626 143 585 q 111 729 111 667 q 169 873 111 822 q 343 924 226 924 q 567 729 567 924 l 567 611 l 469 611 l 469 735 q 437 813 469 785 q 339 840 404 840 q 241 813 274 840 q 208 736 208 785 q 218 660 208 688 q 261 601 228 632 l 510 363 q 565 277 550 318 q 581 174 581 236 m 290 -76 l 401 -76 l 401 -194 l 340 -356 l 296 -347 l 324 -215 l 290 -203 l 290 -76 z "},"ș":{"ha":692,"x_min":111,"x_max":581,"o":"m 581 174 q 346 -21 581 -21 q 111 174 111 -21 l 111 292 l 208 292 l 208 168 q 243 90 208 118 q 346 63 278 63 q 449 90 414 63 q 483 166 483 118 q 473 242 483 214 q 431 303 463 271 l 186 542 q 127 626 143 585 q 111 729 111 667 q 169 873 111 822 q 343 924 226 924 q 567 729 567 924 l 567 611 l 469 611 l 469 735 q 437 813 469 785 q 339 840 404 840 q 241 813 274 840 q 208 736 208 785 q 218 660 208 688 q 261 601 228 632 l 510 363 q 565 277 550 318 q 581 174 581 236 m 290 -76 l 401 -76 l 401 -194 l 340 -356 l 296 -347 l 324 -215 l 290 -203 l 290 -76 z "},"Ț":{"ha":542,"x_min":42,"x_max":500,"o":"m 500 903 l 500 819 l 319 819 l 319 0 l 222 0 l 222 819 l 42 819 l 42 903 l 500 903 m 214 -76 l 325 -76 l 325 -194 l 264 -356 l 219 -347 l 247 -215 l 214 -203 l 214 -76 z "},"ț":{"ha":521,"x_min":118,"x_max":465,"o":"m 118 903 l 424 903 l 424 819 l 215 819 l 215 154 q 235 89 215 115 q 292 63 256 63 q 349 88 329 63 q 368 154 368 114 l 368 319 l 465 319 l 465 160 q 419 26 465 72 q 293 -21 372 -21 q 166 26 214 -21 q 118 160 118 72 l 118 903 m 239 -76 l 350 -76 l 350 -194 l 289 -356 l 244 -347 l 272 -215 l 239 -203 l 239 -76 z "},"ˆ":{"ha":511,"x_min":97,"x_max":414,"o":"m 256 1056 l 133 969 l 97 1006 l 233 1163 l 278 1163 l 414 1006 l 378 969 l 256 1056 z "},"ˇ":{"ha":511,"x_min":97,"x_max":414,"o":"m 256 1081 l 378 1167 l 414 1131 l 278 974 l 233 974 l 97 1131 l 133 1167 l 256 1081 z "},"˘":{"ha":528,"x_min":128,"x_max":400,"o":"m 204 1133 l 204 1106 q 264 1063 204 1063 q 324 1106 324 1063 l 324 1133 l 400 1133 l 400 1097 q 264 993 400 993 q 128 1097 128 993 l 128 1133 l 204 1133 z "},"˙":{"ha":528,"x_min":208,"x_max":319,"o":"m 319 993 l 208 993 l 208 1146 l 319 1146 l 319 993 z "},"˚":{"ha":528,"x_min":146,"x_max":382,"o":"m 382 1083 l 382 1056 q 264 951 382 951 q 146 1056 146 951 l 146 1083 q 264 1188 146 1188 q 382 1083 382 1188 m 215 1083 l 215 1056 q 264 1013 215 1013 q 313 1056 313 1013 l 313 1083 q 264 1126 313 1126 q 215 1083 215 1126 z "},"˛":{"ha":694,"x_min":225,"x_max":474,"o":"m 292 -172 l 292 -231 q 349 -274 292 -274 q 407 -231 407 -274 l 407 -189 l 474 -189 l 474 -228 q 349 -333 474 -333 q 225 -228 225 -333 l 225 -172 q 282 -57 225 -110 l 350 0 l 447 0 l 360 -71 q 292 -172 292 -126 z "},"˜":{"ha":508,"x_min":90,"x_max":418,"o":"m 314 1054 q 254 1028 293 1054 q 180 1001 215 1001 q 119 1029 144 1001 q 90 1104 94 1057 l 147 1124 q 194 1085 161 1085 q 254 1111 215 1085 q 328 1138 293 1138 q 389 1110 364 1138 q 418 1035 414 1082 l 361 1015 q 314 1054 347 1054 z "},"˝":{"ha":690,"x_min":139,"x_max":635,"o":"m 385 1101 l 332 1049 l 175 969 l 139 1006 l 310 1176 l 385 1101 m 635 1101 l 582 1049 l 425 969 l 389 1006 l 560 1176 l 635 1101 z "},"Δ":{"ha":749,"x_min":69,"x_max":679,"o":"m 69 0 l 69 76 l 340 903 l 408 903 l 679 76 l 679 0 l 69 0 m 582 83 l 374 731 l 167 83 l 582 83 z "},"Ω":{"ha":764,"x_min":76,"x_max":686,"o":"m 464 0 l 464 265 q 513 281 500 276 q 538 301 526 286 q 549 340 549 315 l 549 729 q 382 840 549 840 q 215 729 215 840 l 215 340 q 233 294 215 307 q 299 267 250 281 l 299 0 l 76 0 l 76 83 l 215 83 l 215 200 q 118 340 118 238 l 118 729 q 183 873 118 822 q 380 924 249 924 q 578 873 511 924 q 646 729 646 822 l 646 340 q 547 199 646 236 l 547 83 l 686 83 l 686 0 l 464 0 z "},"μ":{"ha":722,"x_min":125,"x_max":597,"o":"m 125 903 l 222 903 l 222 174 q 361 63 222 63 q 500 174 500 63 l 500 903 l 597 903 l 597 174 q 538 30 597 81 q 371 -21 479 -21 q 210 32 263 -21 l 167 -347 l 125 -347 l 125 903 z "},"π":{"ha":829,"x_min":97,"x_max":732,"o":"m 278 0 l 181 0 l 181 681 l 97 681 l 97 764 l 732 764 l 732 681 l 649 681 l 649 0 l 551 0 l 551 681 l 278 681 l 278 0 z "},"Ẁ":{"ha":949,"x_min":63,"x_max":886,"o":"m 333 0 l 197 0 l 63 903 l 160 903 l 274 140 l 422 903 l 526 903 l 675 140 l 789 903 l 886 903 l 751 0 l 615 0 l 474 721 l 333 0 m 404 1049 l 351 1101 l 426 1176 l 597 1006 l 561 969 l 404 1049 z "},"ẁ":{"ha":1056,"x_min":125,"x_max":931,"o":"m 479 174 l 479 903 l 576 903 l 576 174 q 705 63 576 63 q 833 174 833 63 l 833 903 l 931 903 l 931 174 q 872 31 931 82 q 699 -21 814 -21 q 528 60 585 -21 q 358 -21 474 -21 q 183 31 242 -21 q 125 174 125 82 l 125 903 l 222 903 l 222 174 q 351 63 222 63 q 479 174 479 63 m 457 1049 l 404 1101 l 479 1176 l 650 1006 l 614 969 l 457 1049 z "},"Ẃ":{"ha":949,"x_min":63,"x_max":886,"o":"m 333 0 l 197 0 l 63 903 l 160 903 l 274 140 l 422 903 l 526 903 l 675 140 l 789 903 l 886 903 l 751 0 l 615 0 l 474 721 l 333 0 m 611 1101 l 558 1049 l 401 969 l 365 1006 l 536 1176 l 611 1101 z "},"ẃ":{"ha":1056,"x_min":125,"x_max":931,"o":"m 479 174 l 479 903 l 576 903 l 576 174 q 705 63 576 63 q 833 174 833 63 l 833 903 l 931 903 l 931 174 q 872 31 931 82 q 699 -21 814 -21 q 528 60 585 -21 q 358 -21 474 -21 q 183 31 242 -21 q 125 174 125 82 l 125 903 l 222 903 l 222 174 q 351 63 222 63 q 479 174 479 63 m 664 1101 l 611 1049 l 454 969 l 418 1006 l 589 1176 l 664 1101 z "},"Ẅ":{"ha":949,"x_min":63,"x_max":886,"o":"m 333 0 l 197 0 l 63 903 l 160 903 l 274 140 l 422 903 l 526 903 l 675 140 l 789 903 l 886 903 l 751 0 l 615 0 l 474 721 l 333 0 m 425 993 l 328 993 l 328 1146 l 425 1146 l 425 993 m 619 993 l 522 993 l 522 1146 l 619 1146 l 619 993 z "},"ẅ":{"ha":1056,"x_min":125,"x_max":931,"o":"m 479 174 l 479 903 l 576 903 l 576 174 q 705 63 576 63 q 833 174 833 63 l 833 903 l 931 903 l 931 174 q 872 31 931 82 q 699 -21 814 -21 q 528 60 585 -21 q 358 -21 474 -21 q 183 31 242 -21 q 125 174 125 82 l 125 903 l 222 903 l 222 174 q 351 63 222 63 q 479 174 479 63 m 479 993 l 382 993 l 382 1146 l 479 1146 l 479 993 m 674 993 l 576 993 l 576 1146 l 674 1146 l 674 993 z "},"Ỳ":{"ha":625,"x_min":35,"x_max":590,"o":"m 361 0 l 264 0 l 264 324 l 35 903 l 138 903 l 313 438 l 488 903 l 590 903 l 361 322 l 361 0 m 243 1049 l 190 1101 l 265 1176 l 436 1006 l 400 969 l 243 1049 z "},"ỳ":{"ha":653,"x_min":90,"x_max":563,"o":"m 376 0 l 279 0 l 279 256 q 90 447 90 276 l 90 903 l 188 903 l 188 447 q 326 336 188 336 q 465 447 465 336 l 465 903 l 563 903 l 563 447 q 376 256 563 276 l 376 0 m 243 1049 l 190 1101 l 265 1176 l 436 1006 l 400 969 l 243 1049 z "},"–":{"ha":774,"x_min":26,"x_max":747,"o":"m 747 493 l 747 410 l 26 410 l 26 493 l 747 493 z "},"—":{"ha":888,"x_min":26,"x_max":861,"o":"m 861 493 l 861 410 l 26 410 l 26 493 l 861 493 z "},"‘":{"ha":361,"x_min":63,"x_max":188,"o":"m 188 625 l 63 625 l 63 757 l 131 932 l 175 924 l 154 778 l 188 765 l 188 625 z "},"’":{"ha":361,"x_min":118,"x_max":243,"o":"m 118 925 l 243 925 l 243 793 l 175 618 l 131 626 l 151 772 l 118 785 l 118 925 z "},"‚":{"ha":361,"x_min":118,"x_max":243,"o":"m 118 153 l 243 153 l 243 21 l 175 -154 l 131 -146 l 151 0 l 118 13 l 118 153 z "},"“":{"ha":569,"x_min":63,"x_max":396,"o":"m 188 625 l 63 625 l 63 757 l 131 932 l 175 924 l 154 778 l 188 765 l 188 625 m 396 625 l 271 625 l 271 757 l 339 932 l 383 924 l 363 778 l 396 765 l 396 625 z "},"”":{"ha":569,"x_min":118,"x_max":451,"o":"m 118 924 l 243 924 l 243 792 l 175 617 l 131 625 l 151 771 l 118 783 l 118 924 m 326 925 l 451 925 l 451 793 l 383 618 l 339 626 l 360 772 l 326 785 l 326 925 z "},"„":{"ha":569,"x_min":118,"x_max":451,"o":"m 118 153 l 243 153 l 243 21 l 175 -154 l 131 -146 l 151 0 l 118 13 l 118 153 m 326 153 l 451 153 l 451 21 l 383 -154 l 339 -146 l 360 0 l 326 13 l 326 153 z "},"†":{"ha":611,"x_min":83,"x_max":528,"o":"m 83 681 l 83 764 l 257 764 l 257 972 l 354 972 l 354 764 l 528 764 l 528 681 l 354 681 l 354 0 l 257 0 l 257 681 l 83 681 z "},"‡":{"ha":611,"x_min":83,"x_max":528,"o":"m 83 681 l 83 764 l 257 764 l 257 972 l 354 972 l 354 764 l 528 764 l 528 681 l 354 681 l 354 292 l 528 292 l 528 208 l 354 208 l 354 0 l 257 0 l 257 208 l 83 208 l 83 292 l 257 292 l 257 681 l 83 681 z "},"•":{"ha":399,"x_min":126,"x_max":289,"o":"m 289 351 l 126 351 l 126 550 l 289 550 l 289 351 z "},"…":{"ha":972,"x_min":118,"x_max":854,"o":"m 243 0 l 118 0 l 118 153 l 243 153 l 243 0 m 549 0 l 424 0 l 424 153 l 549 153 l 549 0 m 854 0 l 729 0 l 729 153 l 854 153 l 854 0 z "},"‰":{"ha":1222,"x_min":118,"x_max":1104,"o":"m 361 -83 l 299 -83 l 542 986 l 604 986 l 361 -83 m 368 822 l 368 610 q 337 533 368 561 q 244 504 306 504 q 150 532 182 504 q 118 610 118 560 l 118 822 q 243 928 118 928 q 336 900 304 928 q 368 822 368 872 m 301 610 l 301 822 q 243 868 301 868 q 185 822 185 868 l 185 610 q 243 564 185 564 q 301 610 301 564 m 785 304 l 785 92 q 753 15 785 43 q 660 -14 722 -14 q 567 14 599 -14 q 535 92 535 42 l 535 304 q 660 410 535 410 q 753 382 721 410 q 785 304 785 354 m 718 92 l 718 304 q 660 350 718 350 q 601 304 601 350 l 601 92 q 660 46 601 46 q 718 92 718 46 m 1104 304 l 1104 92 q 1073 15 1104 43 q 980 -14 1042 -14 q 886 14 918 -14 q 854 92 854 42 l 854 304 q 979 410 854 410 q 1072 382 1040 410 q 1104 304 1104 354 m 1038 92 l 1038 304 q 979 350 1038 350 q 921 304 921 350 l 921 92 q 979 46 921 46 q 1038 92 1038 46 z "},"‹":{"ha":392,"x_min":83,"x_max":336,"o":"m 174 451 l 336 244 l 268 185 l 83 421 l 83 482 l 268 718 l 336 658 l 174 451 z "},"›":{"ha":392,"x_min":56,"x_max":308,"o":"m 218 451 l 56 658 l 124 718 l 308 482 l 308 421 l 124 185 l 56 244 l 218 451 z "},"⁄":{"ha":549,"x_min":97,"x_max":451,"o":"m 97 439 l 97 479 l 451 479 l 451 439 l 97 439 z "},"₀":{"ha":86,"x_min":-251,"x_max":-1,"o":"m -1 304 l -1 92 q -33 15 -1 43 q -126 -14 -64 -14 q -219 14 -187 -14 q -251 92 -251 42 l -251 304 q -126 410 -251 410 q -33 382 -65 410 q -1 304 -1 354 m -68 92 l -68 304 q -126 350 -68 350 q -185 304 -185 350 l -185 92 q -126 46 -185 46 q -68 92 -68 46 z "},"₁":{"ha":424,"x_min":79,"x_max":261,"o":"m 261 396 l 261 0 l 194 0 l 194 324 l 108 275 l 79 324 l 201 396 l 261 396 z "},"₂":{"ha":424,"x_min":89,"x_max":338,"o":"m 89 0 l 89 54 l 229 226 q 271 299 271 278 l 271 307 q 217 350 271 350 q 163 307 163 350 l 163 279 l 96 279 l 96 304 q 217 410 96 410 q 338 304 338 410 l 338 299 q 272 178 338 257 l 174 60 l 336 60 l 336 0 l 89 0 z "},"₃":{"ha":424,"x_min":86,"x_max":335,"o":"m 328 304 l 328 267 q 281 193 328 215 q 335 118 335 174 l 335 92 q 210 -14 335 -14 q 86 92 86 -14 l 86 110 l 153 110 l 153 89 q 210 46 153 46 q 268 89 268 46 l 268 118 q 254 151 268 136 q 218 167 240 167 l 153 167 l 153 219 l 211 219 q 248 234 235 219 q 261 267 261 249 l 261 307 q 207 350 261 350 q 153 307 153 350 l 153 279 l 86 279 l 86 304 q 207 410 86 410 q 328 304 328 410 z "},"₄":{"ha":424,"x_min":47,"x_max":329,"o":"m 294 396 l 294 133 l 329 133 l 329 74 l 294 74 l 294 0 l 228 0 l 228 74 l 47 74 l 47 128 l 232 396 l 294 396 m 228 133 l 228 281 l 121 133 l 228 133 z "},"₅":{"ha":424,"x_min":86,"x_max":335,"o":"m 93 396 l 328 396 l 328 336 l 160 336 l 160 247 l 218 247 q 305 217 275 247 q 335 138 335 188 l 335 92 q 210 -14 335 -14 q 86 92 86 -14 l 86 117 l 153 117 l 153 89 q 210 46 153 46 q 268 89 268 46 l 268 138 q 254 172 268 157 q 218 188 240 188 l 93 188 l 93 396 z "},"₆":{"ha":424,"x_min":85,"x_max":335,"o":"m 85 93 l 85 304 q 209 410 85 410 q 333 304 333 410 l 333 279 l 267 279 l 267 307 q 209 350 267 350 q 151 307 151 350 l 151 229 q 223 243 175 243 q 303 215 271 243 q 335 138 335 188 l 335 92 q 303 15 335 43 q 211 -14 272 -14 q 85 93 85 -14 m 151 92 q 210 46 151 46 q 268 92 268 46 l 268 138 q 212 183 268 183 q 151 143 156 183 l 151 92 z "},"₇":{"ha":424,"x_min":82,"x_max":324,"o":"m 82 336 l 82 396 l 324 396 l 324 343 l 196 0 l 126 0 l 251 336 l 82 336 z "},"₈":{"ha":424,"x_min":86,"x_max":335,"o":"m 86 92 l 86 122 q 119 192 86 172 q 86 264 86 211 l 86 304 q 207 410 86 410 q 328 304 328 410 l 328 264 q 296 193 328 213 q 335 122 335 172 l 335 92 q 210 -14 335 -14 q 86 92 86 -14 m 217 167 l 203 167 q 166 153 179 167 q 153 122 153 139 l 153 89 q 210 46 153 46 q 268 89 268 46 l 268 122 q 254 153 268 139 q 217 167 240 167 m 153 307 l 153 264 q 165 233 153 246 q 203 219 178 219 l 210 219 q 247 233 233 219 q 261 264 261 246 l 261 307 q 207 350 261 350 q 153 307 153 350 z "},"₉":{"ha":424,"x_min":85,"x_max":335,"o":"m 335 304 l 335 92 q 210 -14 335 -14 q 86 92 86 -14 l 86 104 l 153 104 l 153 89 q 210 46 153 46 q 268 89 268 46 l 268 156 q 197 142 246 142 q 117 169 149 142 q 85 247 85 197 l 85 304 q 210 410 85 410 q 303 382 271 410 q 335 304 335 354 m 268 247 l 268 304 q 210 350 268 350 q 151 304 151 350 l 151 247 q 210 201 151 201 q 268 247 268 201 z "},"₣":{"ha":576,"x_min":69,"x_max":521,"o":"m 236 0 l 139 0 l 139 236 l 69 236 l 69 306 l 139 306 l 139 903 l 521 903 l 521 819 l 236 819 l 236 500 l 465 500 l 465 417 l 236 417 l 236 306 l 465 306 l 465 236 l 236 236 l 236 0 z "},"₤":{"ha":708,"x_min":69,"x_max":594,"o":"m 594 83 l 594 0 l 85 0 l 126 76 l 129 236 l 69 236 l 69 306 l 131 306 l 133 444 l 69 444 l 69 514 l 135 514 l 139 729 q 371 924 143 924 q 528 873 475 924 q 581 729 581 822 l 581 653 l 483 653 l 483 735 q 454 813 483 785 q 367 840 425 840 q 236 735 239 840 l 232 514 l 497 514 l 497 444 l 231 444 l 228 306 l 497 306 l 497 236 l 226 236 l 224 83 l 594 83 z "},"€":{"ha":708,"x_min":83,"x_max":632,"o":"m 271 521 l 271 382 l 549 382 l 535 313 l 271 313 l 271 174 q 402 63 271 63 q 549 164 533 63 l 632 138 q 404 -21 610 -21 q 232 30 290 -21 q 174 174 174 81 l 174 313 l 83 313 l 97 382 l 174 382 l 174 521 l 83 521 l 97 590 l 174 590 l 174 729 q 231 873 174 822 q 401 924 288 924 q 629 765 607 924 l 546 739 q 401 840 531 840 q 271 729 271 840 l 271 590 l 549 590 l 535 521 l 271 521 z "},"ℓ":{"ha":433,"x_min":118,"x_max":433,"o":"m 279 -21 q 160 25 201 -21 q 118 160 118 71 l 118 903 l 215 903 l 215 154 q 279 63 215 63 q 328 79 303 63 q 361 117 353 96 l 433 71 q 279 -21 381 -21 z "},"™":{"ha":756,"x_min":42,"x_max":651,"o":"m 403 507 l 336 507 l 336 903 l 431 903 l 493 669 l 557 903 l 651 903 l 651 507 l 585 507 l 585 785 l 579 785 l 519 575 l 468 575 l 408 785 l 403 785 l 403 507 m 285 903 l 285 843 l 197 843 l 197 507 l 131 507 l 131 843 l 42 843 l 42 903 l 285 903 z "},"Ω":{"ha":764,"x_min":76,"x_max":686,"o":"m 464 0 l 464 265 q 513 281 500 276 q 538 301 526 286 q 549 340 549 315 l 549 729 q 382 840 549 840 q 215 729 215 840 l 215 340 q 233 294 215 307 q 299 267 250 281 l 299 0 l 76 0 l 76 83 l 215 83 l 215 200 q 118 340 118 238 l 118 729 q 183 873 118 822 q 380 924 249 924 q 578 873 511 924 q 646 729 646 822 l 646 340 q 547 199 646 236 l 547 83 l 686 83 l 686 0 l 464 0 z "},"℮":{"ha":833,"x_min":61,"x_max":779,"o":"m 218 360 l 218 108 q 419 26 304 26 q 688 193 592 26 l 736 164 q 592 19 660 61 q 419 -24 525 -24 q 158 86 254 -24 q 61 364 61 196 q 158 638 61 532 q 422 743 254 743 q 680 637 589 743 q 779 360 771 531 l 218 360 m 218 410 l 622 410 l 622 611 q 417 694 535 694 q 218 611 300 694 l 218 410 z "},"∂":{"ha":708,"x_min":90,"x_max":617,"o":"m 554 718 q 565 701 554 718 q 597 638 576 683 q 617 569 617 592 q 614 521 617 546 l 565 174 q 487 30 553 81 q 303 -21 421 -21 q 90 139 90 -21 q 93 174 90 149 l 142 521 q 217 664 154 613 q 385 715 281 715 q 439 707 410 715 l 447 715 l 222 1042 l 329 1042 l 486 817 q 554 718 532 753 m 518 540 q 386 632 518 632 q 239 521 254 632 l 190 174 q 189 154 189 167 q 321 63 189 63 q 468 174 453 63 l 517 521 q 518 540 518 528 z "},"∆":{"ha":749,"x_min":69,"x_max":679,"o":"m 69 0 l 69 76 l 340 903 l 408 903 l 679 76 l 679 0 l 69 0 m 582 83 l 374 731 l 167 83 l 582 83 z "},"∏":{"ha":903,"x_min":111,"x_max":792,"o":"m 292 -139 l 194 -139 l 194 819 l 111 819 l 111 903 l 792 903 l 792 819 l 708 819 l 708 -139 l 611 -139 l 611 819 l 292 819 l 292 -139 z "},"∑":{"ha":681,"x_min":83,"x_max":611,"o":"m 611 -56 l 611 -139 l 139 -139 l 83 -83 l 319 382 l 83 847 l 139 903 l 611 903 l 611 819 l 201 819 l 424 382 l 201 -56 l 611 -56 z "},"−":{"ha":708,"x_min":132,"x_max":576,"o":"m 576 493 l 576 410 l 132 410 l 132 493 l 576 493 z "},"∕":{"ha":549,"x_min":97,"x_max":451,"o":"m 97 439 l 97 479 l 451 479 l 451 439 l 97 439 z "},"√":{"ha":668,"x_min":83,"x_max":779,"o":"m 779 1042 l 779 972 l 578 972 l 358 0 l 226 0 l 83 460 l 172 485 l 288 107 l 497 1042 l 779 1042 z "},"∞":{"ha":1022,"x_min":97,"x_max":925,"o":"m 742 596 l 682 596 q 609 560 640 596 q 546 444 578 524 q 696 293 615 293 l 742 293 q 840 444 840 293 q 742 596 840 596 m 731 217 l 696 217 q 592 247 631 217 q 511 350 554 276 q 438 246 471 275 q 340 217 404 217 l 292 217 q 97 440 97 217 q 148 615 97 557 q 292 672 199 672 l 326 672 q 429 642 392 672 q 510 539 467 613 q 584 643 551 614 q 682 672 617 672 l 731 672 q 925 449 925 672 q 874 274 925 332 q 731 217 824 217 m 281 293 l 340 293 q 413 329 382 293 q 476 444 444 365 q 326 596 407 596 l 281 596 q 182 444 182 596 q 281 293 182 293 z "},"∫":{"ha":533,"x_min":83,"x_max":450,"o":"m 315 735 l 315 35 q 258 -109 315 -58 q 83 -160 200 -160 l 88 -76 q 185 -49 153 -76 q 218 29 218 -21 l 218 729 q 276 873 218 822 q 450 924 333 924 l 446 840 q 348 813 381 840 q 315 735 315 785 z "},"≈":{"ha":708,"x_min":132,"x_max":576,"o":"m 576 521 q 482 553 529 553 q 356 519 435 553 q 226 485 278 485 q 132 521 174 485 l 132 604 q 221 568 175 568 q 345 602 267 568 q 474 636 424 636 q 576 604 525 636 l 576 521 m 576 299 q 482 331 529 331 q 356 297 435 331 q 226 263 278 263 q 132 299 174 263 l 132 382 q 221 346 175 346 q 345 380 267 346 q 474 414 424 414 q 576 382 525 414 l 576 299 z "},"≠":{"ha":708,"x_min":132,"x_max":576,"o":"m 576 604 l 576 521 l 401 521 l 369 382 l 576 382 l 576 299 l 350 299 l 264 -83 l 201 -83 l 288 299 l 132 299 l 132 382 l 307 382 l 339 521 l 132 521 l 132 604 l 357 604 l 444 986 l 507 986 l 419 604 l 576 604 z "},"≤":{"ha":708,"x_min":132,"x_max":576,"o":"m 132 421 l 132 482 l 539 718 l 576 644 l 239 451 l 576 258 l 539 185 l 132 421 m 576 83 l 576 0 l 132 0 l 132 83 l 576 83 z "},"≥":{"ha":708,"x_min":132,"x_max":576,"o":"m 576 482 l 576 421 l 169 185 l 132 258 l 469 451 l 132 644 l 169 718 l 576 482 m 576 83 l 576 0 l 132 0 l 132 83 l 576 83 z "},"◊":{"ha":749,"x_min":69,"x_max":679,"o":"m 340 -139 l 69 382 l 340 903 l 408 903 l 679 382 l 408 -139 l 340 -139 m 578 382 l 374 786 l 171 382 l 374 -24 l 578 382 z "},"":{"ha":361,"x_min":125,"x_max":236,"o":"m 125 -76 l 236 -76 l 236 -194 l 175 -356 l 131 -347 l 158 -215 l 125 -203 l 125 -76 z "},"":{"ha":1338,"x_min":167,"x_max":1171,"o":"m 846 -124 l 814 -122 q 770 -139 794 -122 q 733 -156 746 -156 l 669 -142 q 637 -150 658 -142 q 603 -158 615 -158 q 569 -141 592 -158 q 529 -124 547 -124 l 496 -126 q 450 -103 475 -126 l 425 -76 q 390 -67 408 -68 q 360 -58 372 -65 q 338 -26 347 -50 q 320 5 328 -1 q 293 19 313 11 q 265 39 274 26 q 256 72 258 51 q 247 101 253 92 q 228 119 242 110 q 197 172 197 144 l 201 207 q 184 244 201 219 q 167 281 167 268 q 175 313 167 293 q 183 345 183 333 q 175 375 183 357 q 167 406 167 393 q 184 447 167 418 q 201 488 201 475 l 200 522 q 223 563 200 543 q 249 590 246 583 q 256 619 253 597 q 264 650 258 642 q 291 667 269 658 q 319 682 313 675 q 336 710 326 689 q 355 740 346 732 q 390 753 364 747 q 424 763 417 758 q 453 790 432 767 q 493 815 474 814 l 529 813 q 569 828 547 813 q 606 844 590 844 l 667 828 l 729 844 q 769 827 747 844 q 808 810 792 810 l 847 814 q 888 791 869 814 q 915 763 906 768 q 944 754 924 758 q 976 743 965 750 q 993 717 986 736 q 1008 690 1000 697 q 1043 669 1015 683 q 1077 643 1071 654 q 1084 610 1083 632 q 1088 581 1085 588 q 1115 555 1092 575 q 1139 513 1139 535 l 1138 478 q 1154 434 1138 460 q 1171 396 1171 408 q 1163 365 1171 383 q 1156 338 1156 347 q 1163 308 1156 328 q 1170 276 1171 288 q 1153 248 1169 265 q 1136 211 1136 231 l 1139 167 q 1117 126 1139 144 q 1091 101 1094 108 q 1081 68 1088 94 q 1067 33 1075 42 q 1042 16 1060 24 q 1018 1 1025 8 q 999 -28 1011 -6 q 976 -58 986 -51 q 942 -72 967 -65 q 911 -82 918 -78 q 885 -105 904 -86 q 846 -124 867 -124 m 669 -8 l 715 -18 q 739 -8 724 -18 q 776 6 760 6 l 797 4 q 826 18 814 4 q 844 35 839 32 q 867 42 849 38 q 892 53 885 47 q 909 74 900 58 q 923 95 918 90 q 940 106 928 100 q 958 117 953 111 q 968 143 964 124 q 976 168 972 163 q 994 186 979 174 q 1010 218 1010 199 l 1008 246 q 1020 274 1008 261 q 1033 296 1032 288 l 1022 340 l 1033 379 q 1021 410 1033 390 q 1008 442 1008 429 l 1010 465 q 993 496 1010 482 q 974 515 976 510 q 970 537 971 521 q 965 560 969 553 q 941 578 961 568 q 915 594 921 589 q 904 614 910 600 q 892 633 899 628 q 869 642 885 639 q 847 648 854 644 q 828 668 840 651 q 799 685 815 685 l 771 682 q 743 694 758 682 q 714 707 728 707 l 668 694 l 624 707 q 596 695 613 707 q 565 683 579 683 l 542 685 q 512 667 526 685 q 491 647 497 650 q 467 640 485 643 q 442 631 449 636 q 428 610 435 625 q 415 589 421 594 q 395 578 410 583 q 375 565 381 572 q 369 544 372 560 q 364 522 367 528 q 344 502 361 517 q 328 472 328 488 l 329 450 q 317 418 329 439 q 306 386 306 397 l 317 344 l 306 299 q 317 270 306 288 q 329 242 329 253 l 326 219 q 344 188 326 204 q 364 167 361 172 q 369 147 367 161 q 376 123 371 132 q 396 108 382 114 q 415 98 410 103 q 428 75 421 93 q 444 51 436 57 q 466 46 453 46 q 488 42 479 46 q 512 20 496 38 q 543 3 528 3 l 564 4 q 594 -8 578 4 q 619 -21 611 -19 l 669 -8 m 503 510 q 538 545 503 510 q 669 579 572 579 q 836 510 767 579 q 906 343 906 442 q 836 176 906 244 q 669 107 767 107 q 503 176 572 107 q 433 343 433 244 q 503 510 433 442 m 729 406 l 801 406 l 801 500 l 536 500 l 536 406 l 611 406 l 611 163 l 729 163 l 729 406 z "},"ﬀ":{"ha":1153,"x_min":139,"x_max":1097,"o":"m 236 0 l 139 0 l 139 903 l 521 903 l 521 819 l 236 819 l 236 500 l 465 500 l 465 417 l 236 417 l 236 0 m 813 0 l 715 0 l 715 903 l 1097 903 l 1097 819 l 813 819 l 813 500 l 1042 500 l 1042 417 l 813 417 l 813 0 z "},"ﬁ":{"ha":896,"x_min":139,"x_max":757,"o":"m 236 0 l 139 0 l 139 903 l 521 903 l 521 819 l 236 819 l 236 500 l 465 500 l 465 417 l 236 417 l 236 0 m 757 0 l 660 0 l 660 903 l 757 903 l 757 0 z "},"ﬂ":{"ha":1039,"x_min":139,"x_max":1011,"o":"m 236 0 l 139 0 l 139 903 l 521 903 l 521 819 l 236 819 l 236 500 l 465 500 l 465 417 l 236 417 l 236 0 m 660 0 l 660 903 l 757 903 l 757 83 l 1011 83 l 1011 0 l 660 0 z "},"ﬃ":{"ha":1528,"x_min":139,"x_max":1389,"o":"m 236 0 l 139 0 l 139 903 l 521 903 l 521 819 l 236 819 l 236 500 l 465 500 l 465 417 l 236 417 l 236 0 m 813 0 l 715 0 l 715 903 l 1097 903 l 1097 819 l 813 819 l 813 500 l 1042 500 l 1042 417 l 813 417 l 813 0 m 1389 0 l 1292 0 l 1292 903 l 1389 903 l 1389 0 z "},"ﬄ":{"ha":1671,"x_min":139,"x_max":1643,"o":"m 236 0 l 139 0 l 139 903 l 521 903 l 521 819 l 236 819 l 236 500 l 465 500 l 465 417 l 236 417 l 236 0 m 813 0 l 715 0 l 715 903 l 1097 903 l 1097 819 l 813 819 l 813 500 l 1042 500 l 1042 417 l 813 417 l 813 0 m 1292 0 l 1292 903 l 1389 903 l 1389 83 l 1643 83 l 1643 0 l 1292 0 z "}}}
